<svg width="112" height="112" viewBox="0 0 112 112" fill="none" xmlns="http://www.w3.org/2000/svg">
<path d="M112 56C112 86.9279 86.9279 112 56 112C25.0721 112 0 86.9279 0 56C0 25.0721 25.0721 0 56 0C86.9279 0 112 25.0721 112 56ZM25.539 56C25.539 72.8232 39.1768 86.461 56 86.461C72.8232 86.461 86.461 72.8232 86.461 56C86.461 39.1768 72.8232 25.539 56 25.539C39.1768 25.539 25.539 39.1768 25.539 56Z" fill="#FF5C00"/>
<path d="M62.9245 111.57C66.773 111.091 70.5613 110.213 74.2284 108.95L65.8102 84.497C63.8367 85.1764 61.7979 85.6489 59.7267 85.907L62.9245 111.57Z" fill="#0F61FF"/>
</svg>
