<svg width="112" height="112" viewBox="0 0 112 112" fill="none" xmlns="http://www.w3.org/2000/svg">
<path d="M56 0C45.1041 -1.29932e-07 34.4448 3.17864 25.3285 9.14639C16.2122 15.1141 9.03488 23.6117 4.6761 33.5978C0.317308 43.5839 -1.03358 54.6247 0.788975 65.3671C2.61153 76.1095 7.52836 86.0869 14.9369 94.0765C22.3455 102.066 31.9239 107.721 42.4984 110.348C53.0729 112.975 64.1841 112.46 74.4703 108.866C84.7565 105.273 93.7708 98.7561 100.409 90.1155C107.047 81.4749 111.02 71.0855 111.841 60.2206L86.3744 58.2958C85.9277 64.2057 83.7666 69.857 80.156 74.557C76.5454 79.2571 71.642 82.8017 66.0469 84.7565C60.4517 86.7113 54.4078 86.9914 48.6558 85.5625C42.9039 84.1335 37.6937 81.0576 33.6638 76.7116C29.634 72.3657 26.9595 66.9385 25.9681 61.0952C24.9767 55.2519 25.7116 49.2463 28.0825 43.8144C30.4535 38.3825 34.3575 33.7602 39.3163 30.5141C44.2751 27.268 50.0732 25.539 56 25.539L56 0Z" fill="#FF5C00"/>
<path d="M50.3747 111.717C57.9381 112.48 65.5779 111.696 72.8284 109.412C80.079 107.127 86.7885 103.39 92.5482 98.4291C98.3079 93.4678 102.997 87.3857 106.33 80.5534C109.663 73.7212 111.57 66.2819 111.935 58.6887C112.3 51.0956 111.116 43.5076 108.453 36.3872C105.791 29.2668 101.707 22.7629 96.4493 17.272C91.192 11.7811 84.8718 7.41805 77.8738 4.44871C70.8758 1.47937 63.3465 -0.0340739 55.7447 0.000581925L55.8626 25.862C59.9538 25.8434 64.0059 26.6579 67.7721 28.2559C71.5384 29.854 74.9398 32.2021 77.7691 35.1572C80.5985 38.1124 82.7966 41.6126 84.2295 45.4447C85.6623 49.2768 86.3 53.3605 86.1035 57.447C85.9071 61.5335 84.8807 65.5373 83.0869 69.2143C81.2931 72.8913 78.7694 76.1645 75.6696 78.8347C72.5699 81.5048 68.9589 83.5158 65.0568 84.7453C61.1547 85.9747 57.0431 86.3968 52.9725 85.9858L50.3747 111.717Z" fill="#0F61FF"/>
</svg>
