<svg width="112" height="112" viewBox="0 0 112 112" fill="none" xmlns="http://www.w3.org/2000/svg">
<path d="M56 0C45.1041 -1.29932e-07 34.4448 3.17864 25.3285 9.14639C16.2122 15.1141 9.03488 23.6117 4.6761 33.5978C0.317308 43.5839 -1.03358 54.6247 0.788975 65.3671C2.61153 76.1095 7.52836 86.0869 14.9369 94.0765C22.3455 102.066 31.9239 107.721 42.4984 110.348C53.0729 112.975 64.1841 112.46 74.4703 108.866C84.7565 105.273 93.7708 98.7561 100.409 90.1155C107.047 81.4749 111.02 71.0855 111.841 60.2206L86.3744 58.2958C85.9277 64.2057 83.7666 69.857 80.156 74.557C76.5454 79.2571 71.642 82.8017 66.0469 84.7565C60.4517 86.7113 54.4078 86.9914 48.6558 85.5625C42.9039 84.1335 37.6937 81.0576 33.6638 76.7116C29.634 72.3657 26.9595 66.9385 25.9681 61.0952C24.9767 55.2519 25.7116 49.2463 28.0825 43.8144C30.4535 38.3825 34.3575 33.7602 39.3163 30.5141C44.2751 27.268 50.0732 25.539 56 25.539L56 0Z" fill="#FF5C00"/>
<path d="M50.3747 111.717C59.99 112.688 69.6929 111.153 78.5398 107.264C87.3866 103.374 95.0762 97.2607 100.861 89.5189C106.645 81.777 110.328 72.6699 111.55 63.0833C112.773 53.4967 111.493 43.7569 107.837 34.8112C104.18 25.8655 98.2704 18.0183 90.6828 12.0329C83.0952 6.04754 74.0877 2.12764 64.5364 0.654458C54.9852 -0.818722 45.2152 0.20497 36.1767 3.62597C27.1383 7.04698 19.139 12.7488 12.9568 20.177L32.8349 36.7207C36.162 32.7229 40.4671 29.6543 45.3314 27.8132C50.1958 25.972 55.4538 25.4211 60.5942 26.2139C65.7345 27.0068 70.5822 29.1164 74.6657 32.3376C78.7493 35.5589 81.9297 39.7821 83.8976 44.5965C85.8656 49.411 86.5541 54.6528 85.8962 59.8121C85.2383 64.9715 83.2565 69.8728 80.1433 74.0393C77.0302 78.2058 72.8918 81.4958 68.1305 83.5892C63.3693 85.6827 58.1474 86.5083 52.9725 85.9858L50.3747 111.717Z" fill="#0F61FF"/>
</svg>
