<svg width="112" height="112" viewBox="0 0 112 112" fill="none" xmlns="http://www.w3.org/2000/svg">
<path d="M103.465 26.2837C97.6833 17.0484 89.3328 9.70048 79.437 5.14034C69.5413 0.580194 58.5301 -0.99403 47.753 0.610586C36.9759 2.2152 26.901 6.92895 18.7629 14.1742C10.6249 21.4194 4.77722 30.8813 1.93658 41.4004C-0.904051 51.9196 -0.614265 63.0389 2.77043 73.3958C6.15512 83.7526 12.4877 92.8972 20.9921 99.7086C29.4965 106.52 39.8032 110.703 50.6493 111.744C61.4954 112.785 72.4096 110.639 82.0544 105.57L70.1722 82.9634C64.9259 85.7209 58.9892 86.888 53.0895 86.3217C47.1898 85.7554 41.5835 83.4803 36.9575 79.7752C32.3316 76.0701 28.887 71.096 27.0459 65.4624C25.2048 59.8288 25.0472 53.7805 26.5924 48.0586C28.1375 42.3368 31.3183 37.19 35.745 33.249C40.1717 29.3079 45.6519 26.7439 51.5141 25.8711C57.3763 24.9983 63.3657 25.8545 68.7485 28.335C74.1313 30.8155 78.6735 34.8124 81.8186 39.8359L103.465 26.2837Z" fill="#FF5C00"/>
<path d="M50.3747 111.717C61.3944 112.829 72.4966 110.649 82.2773 105.452C92.058 100.255 100.078 92.2741 105.323 82.519C110.568 72.7639 112.802 61.6725 111.744 50.6474C110.685 39.6224 106.381 29.1588 99.3754 20.58L79.3439 36.9375C83.1141 41.5545 85.4306 47.1858 86.0003 53.1193C86.57 59.0528 85.3675 65.022 82.5448 70.2721C79.722 75.5221 75.4058 79.8173 70.142 82.6143C64.8782 85.4113 58.9032 86.5846 52.9725 85.9858L50.3747 111.717Z" fill="#0F61FF"/>
</svg>
