<svg width="24" height="24" viewBox="0 0 24 24" fill="none" xmlns="http://www.w3.org/2000/svg">
<path d="M19.7581 20.6152C19.6454 20.6153 19.5339 20.593 19.4299 20.5499C19.3259 20.5067 19.2314 20.4434 19.1519 20.3636L3.63418 4.8479C3.47323 4.68695 3.38281 4.46865 3.38281 4.24104C3.38281 4.01342 3.47323 3.79513 3.63418 3.63418C3.79513 3.47323 4.01342 3.38281 4.24104 3.38281C4.46865 3.38281 4.68695 3.47323 4.8479 3.63418L20.3656 19.1519C20.4852 19.2719 20.5665 19.4246 20.5994 19.5908C20.6323 19.757 20.6153 19.9292 20.5505 20.0857C20.4856 20.2422 20.3759 20.376 20.2351 20.4702C20.0944 20.5645 19.9288 20.6149 19.7594 20.6152H19.7581Z" fill="#0066FF"/>
<path d="M4.24174 20.6152C4.07222 20.6152 3.90651 20.5649 3.76552 20.4708C3.62454 20.3767 3.51461 20.2429 3.4496 20.0863C3.3846 19.9298 3.36744 19.7574 3.4003 19.5911C3.43315 19.4248 3.51454 19.272 3.6342 19.1519L19.1519 3.63418C19.2316 3.55449 19.3262 3.49127 19.4303 3.44814C19.5345 3.40501 19.6461 3.38281 19.7588 3.38281C19.8715 3.38281 19.9831 3.40501 20.0872 3.44814C20.1913 3.49127 20.2859 3.55449 20.3656 3.63418C20.4453 3.71387 20.5085 3.80848 20.5517 3.91261C20.5948 4.01673 20.617 4.12833 20.617 4.24104C20.617 4.35374 20.5948 4.46534 20.5517 4.56947C20.5085 4.67359 20.4453 4.7682 20.3656 4.8479L4.84791 20.3656C4.76826 20.445 4.67371 20.508 4.5697 20.5508C4.46568 20.5936 4.35423 20.6155 4.24174 20.6152Z" fill="#0066FF"/>
</svg>
