<svg width="1223" height="163" viewBox="0 0 1223 163" fill="none" xmlns="http://www.w3.org/2000/svg">
<path d="M3.82019 86.7409V79.2049H5.00419V86.7409H3.82019ZM0.892188 79.8769V78.8689H7.91619V79.8769H0.892188ZM9.60031 86.7409V78.8689H10.7843V86.5489L10.0483 85.7329H13.3603C13.8936 85.7329 14.3043 85.6049 14.5923 85.3489C14.891 85.0822 15.0403 84.7196 15.0403 84.2609C15.0403 83.8129 14.891 83.4609 14.5923 83.2049C14.3043 82.9489 13.8936 82.8209 13.3603 82.8209H10.1283V81.8129H13.3603C14.2243 81.8129 14.923 82.0422 15.4563 82.5009C16.0003 82.9489 16.2723 83.5356 16.2723 84.2609C16.2723 84.7302 16.1443 85.1516 15.8883 85.5249C15.6323 85.8982 15.2856 86.1969 14.8483 86.4209C14.411 86.6342 13.915 86.7409 13.3603 86.7409H9.60031ZM17.3283 86.7409V78.8689H18.5123V86.7409H17.3283ZM30.1941 84.6929L31.0421 85.4769C30.6794 85.9462 30.2207 86.3196 29.6661 86.5969C29.1221 86.8636 28.5034 86.9969 27.8101 86.9969C27.0101 86.9969 26.2954 86.8156 25.6661 86.4529C25.0474 86.0902 24.5567 85.5942 24.1941 84.9649C23.8421 84.3356 23.6661 83.6156 23.6661 82.8049C23.6661 81.9942 23.8421 81.2742 24.1941 80.6449C24.5567 80.0156 25.0527 79.5196 25.6821 79.1569C26.3114 78.7942 27.0261 78.6129 27.8261 78.6129C28.5194 78.6129 29.1381 78.7516 29.6821 79.0289C30.2261 79.2956 30.6794 79.6636 31.0421 80.1329L30.1941 80.9169C29.9381 80.5329 29.6181 80.2289 29.2341 80.0049C28.8501 79.7702 28.3807 79.6529 27.8261 79.6529C27.2501 79.6529 26.7434 79.7862 26.3061 80.0529C25.8687 80.3196 25.5274 80.6929 25.2821 81.1729C25.0367 81.6422 24.9141 82.1862 24.9141 82.8049C24.9141 83.4236 25.0367 83.9729 25.2821 84.4529C25.5274 84.9222 25.8687 85.2902 26.3061 85.5569C26.7434 85.8236 27.2501 85.9569 27.8261 85.9569C28.3807 85.9569 28.8501 85.8449 29.2341 85.6209C29.6181 85.3862 29.9381 85.0769 30.1941 84.6929ZM39.0963 84.5009L39.9283 85.2849C39.5123 85.8182 39.011 86.2396 38.4243 86.5489C37.8376 86.8476 37.1656 86.9969 36.4083 86.9969C35.5763 86.9969 34.8296 86.8156 34.1683 86.4529C33.5176 86.0902 33.0056 85.5942 32.6323 84.9649C32.259 84.3356 32.0723 83.6156 32.0723 82.8049C32.0723 81.9942 32.2483 81.2742 32.6003 80.6449C32.963 80.0156 33.459 79.5196 34.0883 79.1569C34.7176 78.7942 35.4323 78.6129 36.2323 78.6129C37.0003 78.6129 37.6776 78.7942 38.2643 79.1569C38.8616 79.5089 39.331 79.9942 39.6723 80.6129C40.0136 81.2316 40.1843 81.9462 40.1843 82.7569V82.8529H38.9683V82.7569C38.9683 82.1382 38.8456 81.5996 38.6003 81.1409C38.3656 80.6716 38.0403 80.3089 37.6243 80.0529C37.219 79.7862 36.755 79.6529 36.2323 79.6529C35.6563 79.6529 35.1496 79.7862 34.7123 80.0529C34.275 80.3196 33.9336 80.6876 33.6883 81.1569C33.443 81.6262 33.3203 82.1702 33.3203 82.7889C33.3203 83.4076 33.4536 83.9569 33.7203 84.4369C33.987 84.9169 34.3496 85.2902 34.8083 85.5569C35.2776 85.8236 35.8163 85.9569 36.4243 85.9569C37.5336 85.9569 38.4243 85.4716 39.0963 84.5009ZM40.1843 83.2209H33.0643V82.2449H39.9283L40.1843 82.7569V83.2209ZM42.2097 86.7409V78.8689H43.3937V85.1569L43.2657 85.1089L48.3857 78.8689H49.4097V86.7409H48.2257V80.4529L48.3537 80.5009L43.2337 86.7409H42.2097ZM45.8897 77.3969C45.175 77.3969 44.5724 77.2156 44.0817 76.8529C43.6017 76.4796 43.3297 75.9676 43.2657 75.3169H44.3377C44.4017 75.7756 44.567 76.1116 44.8337 76.3249C45.111 76.5382 45.463 76.6449 45.8897 76.6449C46.3057 76.6449 46.647 76.5382 46.9137 76.3249C47.191 76.1116 47.3617 75.7756 47.4257 75.3169H48.4977C48.4337 75.9676 48.1617 76.4796 47.6817 76.8529C47.2017 77.2156 46.6044 77.3969 45.8897 77.3969ZM54.5673 84.0689C53.554 84.0689 52.7806 83.8129 52.2473 83.3009C51.714 82.7782 51.4473 82.0262 51.4473 81.0449V78.8689H52.6313V80.9169C52.6313 81.7276 52.8126 82.2876 53.1753 82.5969C53.5486 82.8956 54.0713 83.0449 54.7433 83.0449C55.554 83.0449 56.386 82.7516 57.2393 82.1649L57.6553 82.9489C57.3566 83.1942 57.0366 83.4022 56.6953 83.5729C56.3646 83.7329 56.018 83.8556 55.6553 83.9409C55.3033 84.0262 54.9406 84.0689 54.5673 84.0689ZM57.1593 86.7409V78.8689H58.3433V86.7409H57.1593ZM67.4092 86.7409H66.2732V85.2049L66.2572 84.7569V81.8129C66.2572 81.1516 66.0439 80.6236 65.6172 80.2289C65.1905 79.8342 64.6145 79.6369 63.8892 79.6369C63.3665 79.6369 62.8919 79.7489 62.4652 79.9729C62.0492 80.1969 61.6812 80.5009 61.3612 80.8849L60.5292 80.0849C60.9665 79.6156 61.4572 79.2529 62.0012 78.9969C62.5559 78.7409 63.1852 78.6129 63.8892 78.6129C64.5932 78.6129 65.2065 78.7462 65.7292 79.0129C66.2625 79.2689 66.6732 79.6316 66.9612 80.1009C67.2599 80.5702 67.4092 81.1249 67.4092 81.7649V86.7409ZM63.2652 86.9969C62.6679 86.9969 62.1399 86.8902 61.6812 86.6769C61.2332 86.4529 60.8812 86.1542 60.6252 85.7809C60.3799 85.4076 60.2572 84.9809 60.2572 84.5009C60.2572 83.9462 60.4119 83.4769 60.7212 83.0929C61.0305 82.6982 61.4519 82.3996 61.9852 82.1969C62.5292 81.9942 63.1425 81.8929 63.8252 81.8929H66.4172V82.8529H63.9852C63.2705 82.8529 62.6732 82.9862 62.1932 83.2529C61.7239 83.5089 61.4892 83.9142 61.4892 84.4689C61.4892 84.9382 61.6652 85.3116 62.0172 85.5889C62.3692 85.8662 62.8332 86.0049 63.4092 86.0049C63.9639 86.0049 64.4652 85.8982 64.9132 85.6849C65.3612 85.4609 65.7185 85.1516 65.9852 84.7569C66.2625 84.3622 66.4172 83.9089 66.4492 83.3969L66.9292 83.6689C66.9292 84.3089 66.7692 84.8796 66.4492 85.3809C66.1399 85.8822 65.7079 86.2769 65.1532 86.5649C64.5985 86.8529 63.9692 86.9969 63.2652 86.9969ZM75.6941 84.6929L76.5421 85.4769C76.1794 85.9462 75.7207 86.3196 75.1661 86.5969C74.6221 86.8636 74.0034 86.9969 73.3101 86.9969C72.5101 86.9969 71.7954 86.8156 71.1661 86.4529C70.5474 86.0902 70.0567 85.5942 69.6941 84.9649C69.3421 84.3356 69.1661 83.6156 69.1661 82.8049C69.1661 81.9942 69.3421 81.2742 69.6941 80.6449C70.0567 80.0156 70.5527 79.5196 71.1821 79.1569C71.8114 78.7942 72.5261 78.6129 73.3261 78.6129C74.0194 78.6129 74.6381 78.7516 75.1821 79.0289C75.7261 79.2956 76.1794 79.6636 76.5421 80.1329L75.6941 80.9169C75.4381 80.5329 75.1181 80.2289 74.7341 80.0049C74.3501 79.7702 73.8807 79.6529 73.3261 79.6529C72.7501 79.6529 72.2434 79.7862 71.8061 80.0529C71.3687 80.3196 71.0274 80.6929 70.7821 81.1729C70.5367 81.6422 70.4141 82.1862 70.4141 82.8049C70.4141 83.4236 70.5367 83.9729 70.7821 84.4529C71.0274 84.9222 71.3687 85.2902 71.8061 85.5569C72.2434 85.8236 72.7501 85.9569 73.3261 85.9569C73.8807 85.9569 74.3501 85.8449 74.7341 85.6209C75.1181 85.3862 75.4381 85.0769 75.6941 84.6929ZM83.5858 86.7409V79.2049H84.7698V86.7409H83.5858ZM80.6578 79.8769V78.8689H87.6818V79.8769H80.6578ZM95.1419 78.8689H96.3579L92.3579 88.1649C92.1339 88.6876 91.8566 89.0982 91.5259 89.3969C91.1953 89.6956 90.6939 89.8449 90.0219 89.8449H89.2379V88.8209H90.0219C90.3633 88.8209 90.6406 88.7356 90.8539 88.5649C91.0779 88.3942 91.2593 88.1436 91.3979 87.8129L91.8139 86.7729L88.4059 78.8689H89.6859L92.6619 86.1169H92.1499L95.1419 78.8689ZM100.008 86.7409V79.2049H101.192V86.7409H100.008ZM97.0797 79.8769V78.8689H104.104V79.8769H97.0797Z" fill="white" fill-opacity="0.8"/>
<path d="M277.182 16V8.128H278.366V16H277.182ZM271.102 16V8.128H272.286V16H271.102ZM271.678 12.368V11.36H277.838V12.368H271.678ZM287.442 16H286.306V14.464L286.29 14.016V11.072C286.29 10.4107 286.077 9.88267 285.65 9.488C285.224 9.09333 284.648 8.896 283.922 8.896C283.4 8.896 282.925 9.008 282.498 9.232C282.082 9.456 281.714 9.76 281.394 10.144L280.562 9.344C281 8.87467 281.49 8.512 282.034 8.256C282.589 8 283.218 7.872 283.922 7.872C284.626 7.872 285.24 8.00533 285.762 8.272C286.296 8.528 286.706 8.89067 286.994 9.36C287.293 9.82933 287.442 10.384 287.442 11.024V16ZM283.298 16.256C282.701 16.256 282.173 16.1493 281.714 15.936C281.266 15.712 280.914 15.4133 280.658 15.04C280.413 14.6667 280.29 14.24 280.29 13.76C280.29 13.2053 280.445 12.736 280.754 12.352C281.064 11.9573 281.485 11.6587 282.018 11.456C282.562 11.2533 283.176 11.152 283.858 11.152H286.45V12.112H284.018C283.304 12.112 282.706 12.2453 282.226 12.512C281.757 12.768 281.522 13.1733 281.522 13.728C281.522 14.1973 281.698 14.5707 282.05 14.848C282.402 15.1253 282.866 15.264 283.442 15.264C283.997 15.264 284.498 15.1573 284.946 14.944C285.394 14.72 285.752 14.4107 286.018 14.016C286.296 13.6213 286.45 13.168 286.482 12.656L286.962 12.928C286.962 13.568 286.802 14.1387 286.482 14.64C286.173 15.1413 285.741 15.536 285.186 15.824C284.632 16.112 284.002 16.256 283.298 16.256ZM292.319 13.328C291.306 13.328 290.533 13.072 289.999 12.56C289.466 12.0373 289.199 11.2853 289.199 10.304V8.128H290.383V10.176C290.383 10.9867 290.565 11.5467 290.927 11.856C291.301 12.1547 291.823 12.304 292.495 12.304C293.306 12.304 294.138 12.0107 294.991 11.424L295.407 12.208C295.109 12.4533 294.789 12.6613 294.447 12.832C294.117 12.992 293.77 13.1147 293.407 13.2C293.055 13.2853 292.693 13.328 292.319 13.328ZM294.911 16V8.128H296.095V16H294.911ZM305.161 16H304.025V14.464L304.009 14.016V11.072C304.009 10.4107 303.796 9.88267 303.369 9.488C302.942 9.09333 302.366 8.896 301.641 8.896C301.118 8.896 300.644 9.008 300.217 9.232C299.801 9.456 299.433 9.76 299.113 10.144L298.281 9.344C298.718 8.87467 299.209 8.512 299.753 8.256C300.308 8 300.937 7.872 301.641 7.872C302.345 7.872 302.958 8.00533 303.481 8.272C304.014 8.528 304.425 8.89067 304.713 9.36C305.012 9.82933 305.161 10.384 305.161 11.024V16ZM301.017 16.256C300.42 16.256 299.892 16.1493 299.433 15.936C298.985 15.712 298.633 15.4133 298.377 15.04C298.132 14.6667 298.009 14.24 298.009 13.76C298.009 13.2053 298.164 12.736 298.473 12.352C298.782 11.9573 299.204 11.6587 299.737 11.456C300.281 11.2533 300.894 11.152 301.577 11.152H304.169V12.112H301.737C301.022 12.112 300.425 12.2453 299.945 12.512C299.476 12.768 299.241 13.1733 299.241 13.728C299.241 14.1973 299.417 14.5707 299.769 14.848C300.121 15.1253 300.585 15.264 301.161 15.264C301.716 15.264 302.217 15.1573 302.665 14.944C303.113 14.72 303.47 14.4107 303.737 14.016C304.014 13.6213 304.169 13.168 304.201 12.656L304.681 12.928C304.681 13.568 304.521 14.1387 304.201 14.64C303.892 15.1413 303.46 15.536 302.905 15.824C302.35 16.112 301.721 16.256 301.017 16.256ZM306.486 16V14.976H307.126C307.414 14.976 307.633 14.9013 307.782 14.752C307.931 14.592 308.022 14.304 308.054 13.888L308.55 8.128H314.15V16H312.966V8.368L313.798 9.136H308.806L309.718 8.368L309.19 14.08C309.126 14.784 308.939 15.28 308.63 15.568C308.331 15.856 307.883 16 307.286 16H306.486ZM320.344 16.256C319.544 16.256 318.829 16.0747 318.2 15.712C317.57 15.3493 317.074 14.8533 316.712 14.224C316.36 13.5947 316.184 12.8747 316.184 12.064C316.184 11.2533 316.36 10.5333 316.712 9.904C317.074 9.27467 317.57 8.77867 318.2 8.416C318.829 8.05333 319.544 7.872 320.344 7.872C321.154 7.872 321.869 8.05333 322.488 8.416C323.117 8.77867 323.608 9.27467 323.96 9.904C324.322 10.5333 324.504 11.2533 324.504 12.064C324.504 12.8747 324.322 13.5947 323.96 14.224C323.608 14.8533 323.117 15.3493 322.488 15.712C321.869 16.0747 321.154 16.256 320.344 16.256ZM320.344 15.216C320.92 15.216 321.426 15.0827 321.864 14.816C322.301 14.5493 322.642 14.1813 322.888 13.712C323.133 13.232 323.256 12.6827 323.256 12.064C323.256 11.4453 323.133 10.9013 322.888 10.432C322.642 9.952 322.301 9.57867 321.864 9.312C321.426 9.04533 320.92 8.912 320.344 8.912C319.768 8.912 319.261 9.04533 318.824 9.312C318.386 9.57867 318.045 9.952 317.8 10.432C317.554 10.9013 317.432 11.4453 317.432 12.064C317.432 12.6827 317.554 13.232 317.8 13.712C318.045 14.1813 318.386 14.5493 318.824 14.816C319.261 15.0827 319.768 15.216 320.344 15.216ZM331.713 16V8.464H332.897V16H331.713ZM328.785 9.136V8.128H335.809V9.136H328.785ZM343.676 13.76L344.508 14.544C344.092 15.0773 343.591 15.4987 343.004 15.808C342.418 16.1067 341.746 16.256 340.988 16.256C340.156 16.256 339.41 16.0747 338.748 15.712C338.098 15.3493 337.586 14.8533 337.212 14.224C336.839 13.5947 336.652 12.8747 336.652 12.064C336.652 11.2533 336.828 10.5333 337.18 9.904C337.543 9.27467 338.039 8.77867 338.668 8.416C339.298 8.05333 340.012 7.872 340.812 7.872C341.58 7.872 342.258 8.05333 342.844 8.416C343.442 8.768 343.911 9.25333 344.252 9.872C344.594 10.4907 344.764 11.2053 344.764 12.016V12.112H343.548V12.016C343.548 11.3973 343.426 10.8587 343.18 10.4C342.946 9.93067 342.62 9.568 342.204 9.312C341.799 9.04533 341.335 8.912 340.812 8.912C340.236 8.912 339.73 9.04533 339.292 9.312C338.855 9.57867 338.514 9.94667 338.268 10.416C338.023 10.8853 337.9 11.4293 337.9 12.048C337.9 12.6667 338.034 13.216 338.3 13.696C338.567 14.176 338.93 14.5493 339.388 14.816C339.858 15.0827 340.396 15.216 341.004 15.216C342.114 15.216 343.004 14.7307 343.676 13.76ZM344.764 12.48H337.644V11.504H344.508L344.764 12.016V12.48ZM350.422 16.256C349.622 16.256 348.907 16.0747 348.278 15.712C347.648 15.3493 347.152 14.8533 346.79 14.224C346.438 13.5947 346.262 12.8747 346.262 12.064C346.262 11.2533 346.438 10.5333 346.79 9.904C347.152 9.27467 347.648 8.77867 348.278 8.416C348.907 8.05333 349.622 7.872 350.422 7.872C351.232 7.872 351.947 8.05333 352.566 8.416C353.195 8.77867 353.686 9.27467 354.038 9.904C354.4 10.5333 354.582 11.2533 354.582 12.064C354.582 12.8747 354.4 13.5947 354.038 14.224C353.686 14.8533 353.195 15.3493 352.566 15.712C351.947 16.0747 351.232 16.256 350.422 16.256ZM350.422 15.216C350.998 15.216 351.504 15.0827 351.942 14.816C352.379 14.5493 352.72 14.1813 352.966 13.712C353.211 13.232 353.334 12.6827 353.334 12.064C353.334 11.4453 353.211 10.9013 352.966 10.432C352.72 9.952 352.379 9.57867 351.942 9.312C351.504 9.04533 350.998 8.912 350.422 8.912C349.846 8.912 349.339 9.04533 348.902 9.312C348.464 9.57867 348.123 9.952 347.878 10.432C347.632 10.9013 347.51 11.4453 347.51 12.064C347.51 12.6827 347.632 13.232 347.878 13.712C348.123 14.1813 348.464 14.5493 348.902 14.816C349.339 15.0827 349.846 15.216 350.422 15.216ZM357.802 19.104H356.618V8.128H357.786V10.512H357.498C357.594 9.98933 357.802 9.53067 358.122 9.136C358.453 8.74133 358.858 8.432 359.338 8.208C359.829 7.984 360.357 7.872 360.922 7.872C361.69 7.872 362.373 8.05867 362.97 8.432C363.567 8.79467 364.031 9.29067 364.362 9.92C364.703 10.5493 364.874 11.264 364.874 12.064C364.874 12.8747 364.698 13.5947 364.346 14.224C364.005 14.8533 363.525 15.3493 362.906 15.712C362.298 16.0747 361.599 16.256 360.81 16.256C360.095 16.256 359.466 16.112 358.922 15.824C358.389 15.5253 357.983 15.1253 357.706 14.624C357.439 14.112 357.343 13.5413 357.418 12.912L357.642 12.592C357.685 13.0933 357.845 13.5467 358.122 13.952C358.399 14.3467 358.762 14.656 359.21 14.88C359.658 15.104 360.149 15.216 360.682 15.216C361.269 15.216 361.781 15.0827 362.218 14.816C362.655 14.5387 362.997 14.1653 363.242 13.696C363.498 13.216 363.626 12.672 363.626 12.064C363.626 11.456 363.503 10.9173 363.258 10.448C363.023 9.968 362.693 9.59467 362.266 9.328C361.839 9.05067 361.343 8.912 360.778 8.912C360.202 8.912 359.69 9.056 359.242 9.344C358.794 9.632 358.442 10.032 358.186 10.544C357.93 11.0453 357.802 11.632 357.802 12.304V19.104ZM366.899 16V8.128H368.083V14.416L367.955 14.368L373.075 8.128H374.099V16H372.915V9.712L373.043 9.76L367.923 16H366.899ZM376.665 16V8.128H377.849V14.416L377.721 14.368L382.841 8.128H383.865V16H382.681V9.712L382.809 9.76L377.689 16H376.665Z" fill="white" fill-opacity="0.8"/>
<path d="M536.524 107V99.128H537.708V107H536.524ZM530.444 107V99.128H531.628V107H530.444ZM531.02 103.368V102.36H537.18V103.368H531.02ZM546.784 107H545.648V105.464L545.632 105.016V102.072C545.632 101.411 545.419 100.883 544.992 100.488C544.566 100.093 543.99 99.896 543.264 99.896C542.742 99.896 542.267 100.008 541.84 100.232C541.424 100.456 541.056 100.76 540.736 101.144L539.904 100.344C540.342 99.8747 540.832 99.512 541.376 99.256C541.931 99 542.56 98.872 543.264 98.872C543.968 98.872 544.582 99.0053 545.104 99.272C545.638 99.528 546.048 99.8907 546.336 100.36C546.635 100.829 546.784 101.384 546.784 102.024V107ZM542.64 107.256C542.043 107.256 541.515 107.149 541.056 106.936C540.608 106.712 540.256 106.413 540 106.04C539.755 105.667 539.632 105.24 539.632 104.76C539.632 104.205 539.787 103.736 540.096 103.352C540.406 102.957 540.827 102.659 541.36 102.456C541.904 102.253 542.518 102.152 543.2 102.152H545.792V103.112H543.36C542.646 103.112 542.048 103.245 541.568 103.512C541.099 103.768 540.864 104.173 540.864 104.728C540.864 105.197 541.04 105.571 541.392 105.848C541.744 106.125 542.208 106.264 542.784 106.264C543.339 106.264 543.84 106.157 544.288 105.944C544.736 105.72 545.094 105.411 545.36 105.016C545.638 104.621 545.792 104.168 545.824 103.656L546.304 103.928C546.304 104.568 546.144 105.139 545.824 105.64C545.515 106.141 545.083 106.536 544.528 106.824C543.974 107.112 543.344 107.256 542.64 107.256ZM551.661 104.328C550.648 104.328 549.874 104.072 549.341 103.56C548.808 103.037 548.541 102.285 548.541 101.304V99.128H549.725V101.176C549.725 101.987 549.906 102.547 550.269 102.856C550.642 103.155 551.165 103.304 551.837 103.304C552.648 103.304 553.48 103.011 554.333 102.424L554.749 103.208C554.45 103.453 554.13 103.661 553.789 103.832C553.458 103.992 553.112 104.115 552.749 104.2C552.397 104.285 552.034 104.328 551.661 104.328ZM554.253 107V99.128H555.437V107H554.253ZM564.503 107H563.367V105.464L563.351 105.016V102.072C563.351 101.411 563.138 100.883 562.711 100.488C562.284 100.093 561.708 99.896 560.983 99.896C560.46 99.896 559.986 100.008 559.559 100.232C559.143 100.456 558.775 100.76 558.455 101.144L557.623 100.344C558.06 99.8747 558.551 99.512 559.095 99.256C559.65 99 560.279 98.872 560.983 98.872C561.687 98.872 562.3 99.0053 562.823 99.272C563.356 99.528 563.767 99.8907 564.055 100.36C564.354 100.829 564.503 101.384 564.503 102.024V107ZM560.359 107.256C559.762 107.256 559.234 107.149 558.775 106.936C558.327 106.712 557.975 106.413 557.719 106.04C557.474 105.667 557.351 105.24 557.351 104.76C557.351 104.205 557.506 103.736 557.815 103.352C558.124 102.957 558.546 102.659 559.079 102.456C559.623 102.253 560.236 102.152 560.919 102.152H563.511V103.112H561.079C560.364 103.112 559.767 103.245 559.287 103.512C558.818 103.768 558.583 104.173 558.583 104.728C558.583 105.197 558.759 105.571 559.111 105.848C559.463 106.125 559.927 106.264 560.503 106.264C561.058 106.264 561.559 106.157 562.007 105.944C562.455 105.72 562.812 105.411 563.079 105.016C563.356 104.621 563.511 104.168 563.543 103.656L564.023 103.928C564.023 104.568 563.863 105.139 563.543 105.64C563.234 106.141 562.802 106.536 562.247 106.824C561.692 107.112 561.063 107.256 560.359 107.256ZM565.828 107V105.976H566.468C566.756 105.976 566.974 105.901 567.124 105.752C567.273 105.592 567.364 105.304 567.396 104.888L567.892 99.128H573.492V107H572.308V99.368L573.14 100.136H568.148L569.06 99.368L568.532 105.08C568.468 105.784 568.281 106.28 567.972 106.568C567.673 106.856 567.225 107 566.628 107H565.828ZM579.685 107.256C578.885 107.256 578.171 107.075 577.541 106.712C576.912 106.349 576.416 105.853 576.053 105.224C575.701 104.595 575.525 103.875 575.525 103.064C575.525 102.253 575.701 101.533 576.053 100.904C576.416 100.275 576.912 99.7787 577.541 99.416C578.171 99.0533 578.885 98.872 579.685 98.872C580.496 98.872 581.211 99.0533 581.829 99.416C582.459 99.7787 582.949 100.275 583.301 100.904C583.664 101.533 583.845 102.253 583.845 103.064C583.845 103.875 583.664 104.595 583.301 105.224C582.949 105.853 582.459 106.349 581.829 106.712C581.211 107.075 580.496 107.256 579.685 107.256ZM579.685 106.216C580.261 106.216 580.768 106.083 581.205 105.816C581.643 105.549 581.984 105.181 582.229 104.712C582.475 104.232 582.597 103.683 582.597 103.064C582.597 102.445 582.475 101.901 582.229 101.432C581.984 100.952 581.643 100.579 581.205 100.312C580.768 100.045 580.261 99.912 579.685 99.912C579.109 99.912 578.603 100.045 578.165 100.312C577.728 100.579 577.387 100.952 577.141 101.432C576.896 101.901 576.773 102.445 576.773 103.064C576.773 103.683 576.896 104.232 577.141 104.712C577.387 105.181 577.728 105.549 578.165 105.816C578.603 106.083 579.109 106.216 579.685 106.216ZM589.007 107V99.128H595.967V107H594.783V99.368L595.615 100.136H589.199L590.191 99.368V107H589.007ZM599.706 110.104H598.522V99.128H599.69V101.512H599.402C599.498 100.989 599.706 100.531 600.026 100.136C600.357 99.7413 600.762 99.432 601.242 99.208C601.733 98.984 602.261 98.872 602.826 98.872C603.594 98.872 604.277 99.0587 604.874 99.432C605.472 99.7947 605.936 100.291 606.266 100.92C606.608 101.549 606.778 102.264 606.778 103.064C606.778 103.875 606.602 104.595 606.25 105.224C605.909 105.853 605.429 106.349 604.81 106.712C604.202 107.075 603.504 107.256 602.714 107.256C602 107.256 601.37 107.112 600.826 106.824C600.293 106.525 599.888 106.125 599.61 105.624C599.344 105.112 599.248 104.541 599.322 103.912L599.546 103.592C599.589 104.093 599.749 104.547 600.026 104.952C600.304 105.347 600.666 105.656 601.114 105.88C601.562 106.104 602.053 106.216 602.586 106.216C603.173 106.216 603.685 106.083 604.122 105.816C604.56 105.539 604.901 105.165 605.146 104.696C605.402 104.216 605.53 103.672 605.53 103.064C605.53 102.456 605.408 101.917 605.162 101.448C604.928 100.968 604.597 100.595 604.17 100.328C603.744 100.051 603.248 99.912 602.682 99.912C602.106 99.912 601.594 100.056 601.146 100.344C600.698 100.632 600.346 101.032 600.09 101.544C599.834 102.045 599.706 102.632 599.706 103.304V110.104ZM615.315 107H614.179V105.464L614.163 105.016V102.072C614.163 101.411 613.95 100.883 613.523 100.488C613.097 100.093 612.521 99.896 611.795 99.896C611.273 99.896 610.798 100.008 610.371 100.232C609.955 100.456 609.587 100.76 609.267 101.144L608.435 100.344C608.873 99.8747 609.363 99.512 609.907 99.256C610.462 99 611.091 98.872 611.795 98.872C612.499 98.872 613.113 99.0053 613.635 99.272C614.169 99.528 614.579 99.8907 614.867 100.36C615.166 100.829 615.315 101.384 615.315 102.024V107ZM611.171 107.256C610.574 107.256 610.046 107.149 609.587 106.936C609.139 106.712 608.787 106.413 608.531 106.04C608.286 105.667 608.163 105.24 608.163 104.76C608.163 104.205 608.318 103.736 608.627 103.352C608.937 102.957 609.358 102.659 609.891 102.456C610.435 102.253 611.049 102.152 611.731 102.152H614.323V103.112H611.891C611.177 103.112 610.579 103.245 610.099 103.512C609.63 103.768 609.395 104.173 609.395 104.728C609.395 105.197 609.571 105.571 609.923 105.848C610.275 106.125 610.739 106.264 611.315 106.264C611.87 106.264 612.371 106.157 612.819 105.944C613.267 105.72 613.625 105.411 613.891 105.016C614.169 104.621 614.323 104.168 614.355 103.656L614.835 103.928C614.835 104.568 614.675 105.139 614.355 105.64C614.046 106.141 613.614 106.536 613.059 106.824C612.505 107.112 611.875 107.256 611.171 107.256ZM622.944 107L618.368 102.92H618.528L622.656 99.128H624.272L619.936 103.064L619.536 102.488L624.672 107H622.944ZM617.6 107V99.128H618.784V107H617.6ZM628.226 107V99.464H629.41V107H628.226ZM625.298 100.136V99.128H632.322V100.136H625.298ZM634.007 107V99.128H635.191V105.416L635.063 105.368L640.183 99.128H641.207V107H640.023V100.712L640.151 100.76L635.031 107H634.007ZM649.116 107L644.54 102.92H644.7L648.828 99.128H650.444L646.108 103.064L645.708 102.488L650.844 107H649.116ZM643.772 107V99.128H644.956V107H643.772ZM652.35 107V99.128H653.534V105.416L653.406 105.368L658.526 99.128H659.55V107H658.366V100.712L658.494 100.76L653.374 107H652.35Z" fill="white" fill-opacity="0.8"/>
<path d="M726.296 13.952L727.144 14.736C726.781 15.2053 726.322 15.5787 725.768 15.856C725.224 16.1227 724.605 16.256 723.912 16.256C723.112 16.256 722.397 16.0747 721.768 15.712C721.149 15.3493 720.658 14.8533 720.296 14.224C719.944 13.5947 719.768 12.8747 719.768 12.064C719.768 11.2533 719.944 10.5333 720.296 9.904C720.658 9.27467 721.154 8.77867 721.784 8.416C722.413 8.05333 723.128 7.872 723.928 7.872C724.621 7.872 725.24 8.01067 725.784 8.288C726.328 8.55467 726.781 8.92267 727.144 9.392L726.296 10.176C726.04 9.792 725.72 9.488 725.336 9.264C724.952 9.02933 724.482 8.912 723.928 8.912C723.352 8.912 722.845 9.04533 722.408 9.312C721.97 9.57867 721.629 9.952 721.384 10.432C721.138 10.9013 721.016 11.4453 721.016 12.064C721.016 12.6827 721.138 13.232 721.384 13.712C721.629 14.1813 721.97 14.5493 722.408 14.816C722.845 15.0827 723.352 15.216 723.928 15.216C724.482 15.216 724.952 15.104 725.336 14.88C725.72 14.6453 726.04 14.336 726.296 13.952ZM731.062 16V8.464H732.246V16H731.062ZM728.134 9.136V8.128H735.158V9.136H728.134ZM743.042 16H741.906V14.464L741.89 14.016V11.072C741.89 10.4107 741.677 9.88267 741.25 9.488C740.823 9.09333 740.247 8.896 739.522 8.896C738.999 8.896 738.525 9.008 738.098 9.232C737.682 9.456 737.314 9.76 736.994 10.144L736.162 9.344C736.599 8.87467 737.09 8.512 737.634 8.256C738.189 8 738.818 7.872 739.522 7.872C740.226 7.872 740.839 8.00533 741.362 8.272C741.895 8.528 742.306 8.89067 742.594 9.36C742.893 9.82933 743.042 10.384 743.042 11.024V16ZM738.898 16.256C738.301 16.256 737.773 16.1493 737.314 15.936C736.866 15.712 736.514 15.4133 736.258 15.04C736.013 14.6667 735.89 14.24 735.89 13.76C735.89 13.2053 736.045 12.736 736.354 12.352C736.663 11.9573 737.085 11.6587 737.618 11.456C738.162 11.2533 738.775 11.152 739.458 11.152H742.05V12.112H739.618C738.903 12.112 738.306 12.2453 737.826 12.512C737.357 12.768 737.122 13.1733 737.122 13.728C737.122 14.1973 737.298 14.5707 737.65 14.848C738.002 15.1253 738.466 15.264 739.042 15.264C739.597 15.264 740.098 15.1573 740.546 14.944C740.994 14.72 741.351 14.4107 741.618 14.016C741.895 13.6213 742.05 13.168 742.082 12.656L742.562 12.928C742.562 13.568 742.402 14.1387 742.082 14.64C741.773 15.1413 741.341 15.536 740.786 15.824C740.231 16.112 739.602 16.256 738.898 16.256ZM754.367 16L750.287 11.92H750.447L754.223 8.128H755.743L751.919 11.984L755.967 16H754.367ZM744.271 16L748.319 11.984L744.511 8.128H746.015L749.791 11.92H749.951L745.887 16H744.271ZM749.519 16V8.128H750.703V16H749.519ZM757.468 16V8.128H758.652V14.416L758.524 14.368L763.644 8.128H764.668V16H763.484V9.712L763.612 9.76L758.492 16H757.468ZM768.417 19.104H767.233V8.128H768.401V10.512H768.113C768.209 9.98933 768.417 9.53067 768.737 9.136C769.068 8.74133 769.473 8.432 769.953 8.208C770.444 7.984 770.972 7.872 771.537 7.872C772.305 7.872 772.988 8.05867 773.585 8.432C774.183 8.79467 774.647 9.29067 774.977 9.92C775.319 10.5493 775.489 11.264 775.489 12.064C775.489 12.8747 775.313 13.5947 774.961 14.224C774.62 14.8533 774.14 15.3493 773.521 15.712C772.913 16.0747 772.215 16.256 771.425 16.256C770.711 16.256 770.081 16.112 769.537 15.824C769.004 15.5253 768.599 15.1253 768.321 14.624C768.055 14.112 767.959 13.5413 768.033 12.912L768.257 12.592C768.3 13.0933 768.46 13.5467 768.737 13.952C769.015 14.3467 769.377 14.656 769.825 14.88C770.273 15.104 770.764 15.216 771.297 15.216C771.884 15.216 772.396 15.0827 772.833 14.816C773.271 14.5387 773.612 14.1653 773.857 13.696C774.113 13.216 774.241 12.672 774.241 12.064C774.241 11.456 774.119 10.9173 773.873 10.448C773.639 9.968 773.308 9.59467 772.881 9.328C772.455 9.05067 771.959 8.912 771.393 8.912C770.817 8.912 770.305 9.056 769.857 9.344C769.409 9.632 769.057 10.032 768.801 10.544C768.545 11.0453 768.417 11.632 768.417 12.304V19.104ZM781.146 16.256C780.346 16.256 779.632 16.0747 779.002 15.712C778.373 15.3493 777.877 14.8533 777.514 14.224C777.162 13.5947 776.986 12.8747 776.986 12.064C776.986 11.2533 777.162 10.5333 777.514 9.904C777.877 9.27467 778.373 8.77867 779.002 8.416C779.632 8.05333 780.346 7.872 781.146 7.872C781.957 7.872 782.672 8.05333 783.29 8.416C783.92 8.77867 784.41 9.27467 784.762 9.904C785.125 10.5333 785.306 11.2533 785.306 12.064C785.306 12.8747 785.125 13.5947 784.762 14.224C784.41 14.8533 783.92 15.3493 783.29 15.712C782.672 16.0747 781.957 16.256 781.146 16.256ZM781.146 15.216C781.722 15.216 782.229 15.0827 782.666 14.816C783.104 14.5493 783.445 14.1813 783.69 13.712C783.936 13.232 784.058 12.6827 784.058 12.064C784.058 11.4453 783.936 10.9013 783.69 10.432C783.445 9.952 783.104 9.57867 782.666 9.312C782.229 9.04533 781.722 8.912 781.146 8.912C780.57 8.912 780.064 9.04533 779.626 9.312C779.189 9.57867 778.848 9.952 778.602 10.432C778.357 10.9013 778.234 11.4453 778.234 12.064C778.234 12.6827 778.357 13.232 778.602 13.712C778.848 14.1813 779.189 14.5493 779.626 14.816C780.064 15.0827 780.57 15.216 781.146 15.216ZM787.343 16V8.128H791.343C792.132 8.128 792.761 8.32 793.231 8.704C793.7 9.07733 793.935 9.57867 793.935 10.208C793.935 10.6027 793.817 10.9493 793.583 11.248C793.348 11.5467 793.028 11.776 792.623 11.936L792.607 11.792C793.108 11.9307 793.513 12.1653 793.823 12.496C794.143 12.816 794.303 13.216 794.303 13.696C794.303 14.1333 794.169 14.528 793.903 14.88C793.647 15.232 793.295 15.5093 792.847 15.712C792.409 15.904 791.924 16 791.391 16H787.343ZM788.527 15.744L787.791 14.992H791.391C791.903 14.992 792.308 14.88 792.607 14.656C792.905 14.4213 793.055 14.1013 793.055 13.696C793.055 13.2907 792.905 12.976 792.607 12.752C792.308 12.5173 791.903 12.4 791.391 12.4H787.967V11.392H791.343C791.833 11.392 792.18 11.2853 792.383 11.072C792.585 10.8587 792.687 10.5707 792.687 10.208C792.687 9.856 792.585 9.58933 792.383 9.408C792.18 9.22667 791.833 9.136 791.343 9.136H787.807L788.527 8.384V15.744ZM801.437 16L796.861 11.92H797.021L801.149 8.128H802.765L798.429 12.064L798.029 11.488L803.165 16H801.437ZM796.093 16V8.128H797.277V16H796.093ZM810.87 16H809.734V14.464L809.718 14.016V11.072C809.718 10.4107 809.505 9.88267 809.078 9.488C808.652 9.09333 808.076 8.896 807.35 8.896C806.828 8.896 806.353 9.008 805.926 9.232C805.51 9.456 805.142 9.76 804.822 10.144L803.99 9.344C804.428 8.87467 804.918 8.512 805.462 8.256C806.017 8 806.646 7.872 807.35 7.872C808.054 7.872 808.668 8.00533 809.19 8.272C809.724 8.528 810.134 8.89067 810.422 9.36C810.721 9.82933 810.87 10.384 810.87 11.024V16ZM806.726 16.256C806.129 16.256 805.601 16.1493 805.142 15.936C804.694 15.712 804.342 15.4133 804.086 15.04C803.841 14.6667 803.718 14.24 803.718 13.76C803.718 13.2053 803.873 12.736 804.182 12.352C804.492 11.9573 804.913 11.6587 805.446 11.456C805.99 11.2533 806.604 11.152 807.286 11.152H809.878V12.112H807.446C806.732 12.112 806.134 12.2453 805.654 12.512C805.185 12.768 804.95 13.1733 804.95 13.728C804.95 14.1973 805.126 14.5707 805.478 14.848C805.83 15.1253 806.294 15.264 806.87 15.264C807.425 15.264 807.926 15.1573 808.374 14.944C808.822 14.72 809.18 14.4107 809.446 14.016C809.724 13.6213 809.878 13.168 809.91 12.656L810.39 12.928C810.39 13.568 810.23 14.1387 809.91 14.64C809.601 15.1413 809.169 15.536 808.614 15.824C808.06 16.112 807.43 16.256 806.726 16.256Z" fill="white" fill-opacity="0.8"/>
<path d="M1078.29 16V8.128H1079.66L1082.93 14.208H1082.67L1085.94 8.128H1087.38V16H1086.21V8.528H1086.88L1083.26 15.28H1082.26L1078.67 8.528H1079.42V16H1078.29ZM1096.44 16H1095.31V14.464L1095.29 14.016V11.072C1095.29 10.4107 1095.08 9.88267 1094.65 9.488C1094.22 9.09333 1093.65 8.896 1092.92 8.896C1092.4 8.896 1091.92 9.008 1091.5 9.232C1091.08 9.456 1090.71 9.76 1090.39 10.144L1089.56 9.344C1090 8.87467 1090.49 8.512 1091.03 8.256C1091.59 8 1092.22 7.872 1092.92 7.872C1093.63 7.872 1094.24 8.00533 1094.76 8.272C1095.29 8.528 1095.71 8.89067 1095.99 9.36C1096.29 9.82933 1096.44 10.384 1096.44 11.024V16ZM1092.3 16.256C1091.7 16.256 1091.17 16.1493 1090.71 15.936C1090.27 15.712 1089.91 15.4133 1089.66 15.04C1089.41 14.6667 1089.29 14.24 1089.29 13.76C1089.29 13.2053 1089.44 12.736 1089.75 12.352C1090.06 11.9573 1090.48 11.6587 1091.02 11.456C1091.56 11.2533 1092.17 11.152 1092.86 11.152H1095.45V12.112H1093.02C1092.3 12.112 1091.71 12.2453 1091.23 12.512C1090.76 12.768 1090.52 13.1733 1090.52 13.728C1090.52 14.1973 1090.7 14.5707 1091.05 14.848C1091.4 15.1253 1091.87 15.264 1092.44 15.264C1093 15.264 1093.5 15.1573 1093.95 14.944C1094.39 14.72 1094.75 14.4107 1095.02 14.016C1095.29 13.6213 1095.45 13.168 1095.48 12.656L1095.96 12.928C1095.96 13.568 1095.8 14.1387 1095.48 14.64C1095.17 15.1413 1094.74 15.536 1094.19 15.824C1093.63 16.112 1093 16.256 1092.3 16.256ZM1101.29 16.256C1100.57 16.256 1099.93 16.1227 1099.37 15.856C1098.8 15.5787 1098.33 15.2053 1097.96 14.736L1098.81 13.952C1099.06 14.336 1099.39 14.6453 1099.8 14.88C1100.21 15.104 1100.7 15.216 1101.27 15.216C1102.17 15.216 1102.88 14.928 1103.41 14.352C1103.95 13.776 1104.21 13.008 1104.21 12.048C1104.21 11.0667 1103.95 10.2987 1103.41 9.744C1102.89 9.18933 1102.19 8.912 1101.3 8.912C1100.74 8.912 1100.25 9.02933 1099.85 9.264C1099.44 9.488 1099.11 9.792 1098.85 10.176L1098.01 9.392C1098.38 8.92267 1098.84 8.55467 1099.4 8.288C1099.95 8.01067 1100.59 7.872 1101.3 7.872C1102.12 7.872 1102.84 8.048 1103.46 8.4C1104.09 8.74133 1104.58 9.22667 1104.93 9.856C1105.29 10.4747 1105.46 11.2107 1105.46 12.064C1105.46 12.8853 1105.29 13.616 1104.93 14.256C1104.58 14.8853 1104.09 15.376 1103.46 15.728C1102.83 16.08 1102.11 16.256 1101.29 16.256ZM1099.62 12.448V11.44H1104.71V12.448H1099.62ZM1113.49 13.952L1114.34 14.736C1113.98 15.2053 1113.52 15.5787 1112.96 15.856C1112.42 16.1227 1111.8 16.256 1111.11 16.256C1110.31 16.256 1109.59 16.0747 1108.96 15.712C1108.35 15.3493 1107.85 14.8533 1107.49 14.224C1107.14 13.5947 1106.96 12.8747 1106.96 12.064C1106.96 11.2533 1107.14 10.5333 1107.49 9.904C1107.85 9.27467 1108.35 8.77867 1108.98 8.416C1109.61 8.05333 1110.32 7.872 1111.12 7.872C1111.82 7.872 1112.44 8.01067 1112.98 8.288C1113.52 8.55467 1113.98 8.92267 1114.34 9.392L1113.49 10.176C1113.24 9.792 1112.92 9.488 1112.53 9.264C1112.15 9.02933 1111.68 8.912 1111.12 8.912C1110.55 8.912 1110.04 9.04533 1109.6 9.312C1109.17 9.57867 1108.83 9.952 1108.58 10.432C1108.33 10.9013 1108.21 11.4453 1108.21 12.064C1108.21 12.6827 1108.33 13.232 1108.58 13.712C1108.83 14.1813 1109.17 14.5493 1109.6 14.816C1110.04 15.0827 1110.55 15.216 1111.12 15.216C1111.68 15.216 1112.15 15.104 1112.53 14.88C1112.92 14.6453 1113.24 14.336 1113.49 13.952ZM1118.26 16V8.464H1119.44V16H1118.26ZM1115.33 9.136V8.128H1122.35V9.136H1115.33ZM1125.22 19.104H1124.04V8.128H1125.21V10.512H1124.92C1125.01 9.98933 1125.22 9.53067 1125.54 9.136C1125.87 8.74133 1126.28 8.432 1126.76 8.208C1127.25 7.984 1127.78 7.872 1128.34 7.872C1129.11 7.872 1129.79 8.05867 1130.39 8.432C1130.99 8.79467 1131.45 9.29067 1131.78 9.92C1132.12 10.5493 1132.29 11.264 1132.29 12.064C1132.29 12.8747 1132.12 13.5947 1131.77 14.224C1131.43 14.8533 1130.95 15.3493 1130.33 15.712C1129.72 16.0747 1129.02 16.256 1128.23 16.256C1127.52 16.256 1126.89 16.112 1126.34 15.824C1125.81 15.5253 1125.4 15.1253 1125.13 14.624C1124.86 14.112 1124.76 13.5413 1124.84 12.912L1125.06 12.592C1125.11 13.0933 1125.27 13.5467 1125.54 13.952C1125.82 14.3467 1126.18 14.656 1126.63 14.88C1127.08 15.104 1127.57 15.216 1128.1 15.216C1128.69 15.216 1129.2 15.0827 1129.64 14.816C1130.08 14.5387 1130.42 14.1653 1130.66 13.696C1130.92 13.216 1131.05 12.672 1131.05 12.064C1131.05 11.456 1130.92 10.9173 1130.68 10.448C1130.44 9.968 1130.11 9.59467 1129.69 9.328C1129.26 9.05067 1128.76 8.912 1128.2 8.912C1127.62 8.912 1127.11 9.056 1126.66 9.344C1126.21 9.632 1125.86 10.032 1125.61 10.544C1125.35 11.0453 1125.22 11.632 1125.22 12.304V19.104ZM1137.95 16.256C1137.15 16.256 1136.44 16.0747 1135.81 15.712C1135.18 15.3493 1134.68 14.8533 1134.32 14.224C1133.97 13.5947 1133.79 12.8747 1133.79 12.064C1133.79 11.2533 1133.97 10.5333 1134.32 9.904C1134.68 9.27467 1135.18 8.77867 1135.81 8.416C1136.44 8.05333 1137.15 7.872 1137.95 7.872C1138.76 7.872 1139.48 8.05333 1140.1 8.416C1140.73 8.77867 1141.22 9.27467 1141.57 9.904C1141.93 10.5333 1142.11 11.2533 1142.11 12.064C1142.11 12.8747 1141.93 13.5947 1141.57 14.224C1141.22 14.8533 1140.73 15.3493 1140.1 15.712C1139.48 16.0747 1138.76 16.256 1137.95 16.256ZM1137.95 15.216C1138.53 15.216 1139.03 15.0827 1139.47 14.816C1139.91 14.5493 1140.25 14.1813 1140.5 13.712C1140.74 13.232 1140.86 12.6827 1140.86 12.064C1140.86 11.4453 1140.74 10.9013 1140.5 10.432C1140.25 9.952 1139.91 9.57867 1139.47 9.312C1139.03 9.04533 1138.53 8.912 1137.95 8.912C1137.38 8.912 1136.87 9.04533 1136.43 9.312C1135.99 9.57867 1135.65 9.952 1135.41 10.432C1135.16 10.9013 1135.04 11.4453 1135.04 12.064C1135.04 12.6827 1135.16 13.232 1135.41 13.712C1135.65 14.1813 1135.99 14.5493 1136.43 14.816C1136.87 15.0827 1137.38 15.216 1137.95 15.216ZM1153.35 16V8.128H1154.54V16H1153.35ZM1147.27 16V8.128H1148.46V16H1147.27ZM1147.85 12.368V11.36H1154.01V12.368H1147.85ZM1163.61 16H1162.48V14.464L1162.46 14.016V11.072C1162.46 10.4107 1162.25 9.88267 1161.82 9.488C1161.39 9.09333 1160.82 8.896 1160.09 8.896C1159.57 8.896 1159.1 9.008 1158.67 9.232C1158.25 9.456 1157.89 9.76 1157.57 10.144L1156.73 9.344C1157.17 8.87467 1157.66 8.512 1158.21 8.256C1158.76 8 1159.39 7.872 1160.09 7.872C1160.8 7.872 1161.41 8.00533 1161.93 8.272C1162.47 8.528 1162.88 8.89067 1163.17 9.36C1163.46 9.82933 1163.61 10.384 1163.61 11.024V16ZM1159.47 16.256C1158.87 16.256 1158.34 16.1493 1157.89 15.936C1157.44 15.712 1157.09 15.4133 1156.83 15.04C1156.58 14.6667 1156.46 14.24 1156.46 13.76C1156.46 13.2053 1156.62 12.736 1156.93 12.352C1157.23 11.9573 1157.66 11.6587 1158.19 11.456C1158.73 11.2533 1159.35 11.152 1160.03 11.152H1162.62V12.112H1160.19C1159.47 12.112 1158.88 12.2453 1158.4 12.512C1157.93 12.768 1157.69 13.1733 1157.69 13.728C1157.69 14.1973 1157.87 14.5707 1158.22 14.848C1158.57 15.1253 1159.04 15.264 1159.61 15.264C1160.17 15.264 1160.67 15.1573 1161.12 14.944C1161.57 14.72 1161.92 14.4107 1162.19 14.016C1162.47 13.6213 1162.62 13.168 1162.65 12.656L1163.13 12.928C1163.13 13.568 1162.97 14.1387 1162.65 14.64C1162.34 15.1413 1161.91 15.536 1161.36 15.824C1160.8 16.112 1160.17 16.256 1159.47 16.256ZM1170.21 19.104H1169.02V8.128H1170.19V10.512H1169.9C1170 9.98933 1170.21 9.53067 1170.53 9.136C1170.86 8.74133 1171.26 8.432 1171.74 8.208C1172.23 7.984 1172.76 7.872 1173.33 7.872C1174.09 7.872 1174.78 8.05867 1175.37 8.432C1175.97 8.79467 1176.44 9.29067 1176.77 9.92C1177.11 10.5493 1177.28 11.264 1177.28 12.064C1177.28 12.8747 1177.1 13.5947 1176.75 14.224C1176.41 14.8533 1175.93 15.3493 1175.31 15.712C1174.7 16.0747 1174 16.256 1173.21 16.256C1172.5 16.256 1171.87 16.112 1171.33 15.824C1170.79 15.5253 1170.39 15.1253 1170.11 14.624C1169.84 14.112 1169.75 13.5413 1169.82 12.912L1170.05 12.592C1170.09 13.0933 1170.25 13.5467 1170.53 13.952C1170.8 14.3467 1171.17 14.656 1171.61 14.88C1172.06 15.104 1172.55 15.216 1173.09 15.216C1173.67 15.216 1174.19 15.0827 1174.62 14.816C1175.06 14.5387 1175.4 14.1653 1175.65 13.696C1175.9 13.216 1176.03 12.672 1176.03 12.064C1176.03 11.456 1175.91 10.9173 1175.66 10.448C1175.43 9.968 1175.1 9.59467 1174.67 9.328C1174.24 9.05067 1173.75 8.912 1173.18 8.912C1172.61 8.912 1172.09 9.056 1171.65 9.344C1171.2 9.632 1170.85 10.032 1170.59 10.544C1170.33 11.0453 1170.21 11.632 1170.21 12.304V19.104ZM1185.82 16H1184.68V14.464L1184.66 14.016V11.072C1184.66 10.4107 1184.45 9.88267 1184.02 9.488C1183.6 9.09333 1183.02 8.896 1182.3 8.896C1181.77 8.896 1181.3 9.008 1180.87 9.232C1180.46 9.456 1180.09 9.76 1179.77 10.144L1178.94 9.344C1179.37 8.87467 1179.86 8.512 1180.41 8.256C1180.96 8 1181.59 7.872 1182.3 7.872C1183 7.872 1183.61 8.00533 1184.14 8.272C1184.67 8.528 1185.08 8.89067 1185.37 9.36C1185.67 9.82933 1185.82 10.384 1185.82 11.024V16ZM1181.67 16.256C1181.07 16.256 1180.55 16.1493 1180.09 15.936C1179.64 15.712 1179.29 15.4133 1179.03 15.04C1178.79 14.6667 1178.66 14.24 1178.66 13.76C1178.66 13.2053 1178.82 12.736 1179.13 12.352C1179.44 11.9573 1179.86 11.6587 1180.39 11.456C1180.94 11.2533 1181.55 11.152 1182.23 11.152H1184.82V12.112H1182.39C1181.68 12.112 1181.08 12.2453 1180.6 12.512C1180.13 12.768 1179.9 13.1733 1179.9 13.728C1179.9 14.1973 1180.07 14.5707 1180.42 14.848C1180.78 15.1253 1181.24 15.264 1181.82 15.264C1182.37 15.264 1182.87 15.1573 1183.32 14.944C1183.77 14.72 1184.13 14.4107 1184.39 14.016C1184.67 13.6213 1184.82 13.168 1184.86 12.656L1185.34 12.928C1185.34 13.568 1185.18 14.1387 1184.86 14.64C1184.55 15.1413 1184.11 15.536 1183.56 15.824C1183.01 16.112 1182.38 16.256 1181.67 16.256ZM1191.62 16.256C1190.3 16.256 1189.29 15.7813 1188.6 14.832C1187.91 13.872 1187.57 12.48 1187.57 10.656C1187.57 8.91733 1187.85 7.60533 1188.41 6.72C1188.97 5.83467 1189.86 5.29067 1191.08 5.088L1194.6 4.496L1194.81 5.536L1191.29 6.16C1190.67 6.26667 1190.17 6.48 1189.8 6.8C1189.42 7.12 1189.15 7.58933 1188.98 8.208C1188.81 8.816 1188.71 9.62667 1188.68 10.64L1188.47 11.12C1188.53 10.5333 1188.74 10.032 1189.08 9.616C1189.42 9.18933 1189.85 8.864 1190.36 8.64C1190.87 8.40533 1191.4 8.288 1191.96 8.288C1192.74 8.288 1193.39 8.464 1193.93 8.816C1194.46 9.15733 1194.86 9.62133 1195.14 10.208C1195.42 10.7947 1195.56 11.456 1195.56 12.192C1195.56 13.0133 1195.4 13.7333 1195.08 14.352C1194.76 14.96 1194.3 15.4293 1193.7 15.76C1193.11 16.0907 1192.42 16.256 1191.62 16.256ZM1191.61 15.2C1192.45 15.2 1193.11 14.9333 1193.59 14.4C1194.08 13.856 1194.33 13.12 1194.33 12.192C1194.33 11.2853 1194.1 10.5813 1193.64 10.08C1193.19 9.568 1192.57 9.312 1191.77 9.312C1191.29 9.312 1190.84 9.43467 1190.42 9.68C1190.02 9.91467 1189.67 10.2453 1189.38 10.672C1189.09 11.088 1188.9 11.5733 1188.81 12.128L1188.85 11.168C1188.82 12.5227 1189.03 13.536 1189.48 14.208C1189.94 14.8693 1190.65 15.2 1191.61 15.2ZM1201.22 16.256C1200.42 16.256 1199.7 16.0747 1199.07 15.712C1198.44 15.3493 1197.95 14.8533 1197.59 14.224C1197.23 13.5947 1197.06 12.8747 1197.06 12.064C1197.06 11.2533 1197.23 10.5333 1197.59 9.904C1197.95 9.27467 1198.44 8.77867 1199.07 8.416C1199.7 8.05333 1200.42 7.872 1201.22 7.872C1202.03 7.872 1202.74 8.05333 1203.36 8.416C1203.99 8.77867 1204.48 9.27467 1204.83 9.904C1205.2 10.5333 1205.38 11.2533 1205.38 12.064C1205.38 12.8747 1205.2 13.5947 1204.83 14.224C1204.48 14.8533 1203.99 15.3493 1203.36 15.712C1202.74 16.0747 1202.03 16.256 1201.22 16.256ZM1201.22 15.216C1201.79 15.216 1202.3 15.0827 1202.74 14.816C1203.17 14.5493 1203.52 14.1813 1203.76 13.712C1204.01 13.232 1204.13 12.6827 1204.13 12.064C1204.13 11.4453 1204.01 10.9013 1203.76 10.432C1203.52 9.952 1203.17 9.57867 1202.74 9.312C1202.3 9.04533 1201.79 8.912 1201.22 8.912C1200.64 8.912 1200.13 9.04533 1199.7 9.312C1199.26 9.57867 1198.92 9.952 1198.67 10.432C1198.43 10.9013 1198.31 11.4453 1198.31 12.064C1198.31 12.6827 1198.43 13.232 1198.67 13.712C1198.92 14.1813 1199.26 14.5493 1199.7 14.816C1200.13 15.0827 1200.64 15.216 1201.22 15.216ZM1209.15 16V8.464H1210.33V16H1209.15ZM1206.22 9.136V8.128H1213.25V9.136H1206.22ZM1221.11 13.76L1221.94 14.544C1221.53 15.0773 1221.03 15.4987 1220.44 15.808C1219.85 16.1067 1219.18 16.256 1218.42 16.256C1217.59 16.256 1216.85 16.0747 1216.18 15.712C1215.53 15.3493 1215.02 14.8533 1214.65 14.224C1214.28 13.5947 1214.09 12.8747 1214.09 12.064C1214.09 11.2533 1214.26 10.5333 1214.62 9.904C1214.98 9.27467 1215.48 8.77867 1216.1 8.416C1216.73 8.05333 1217.45 7.872 1218.25 7.872C1219.02 7.872 1219.69 8.05333 1220.28 8.416C1220.88 8.768 1221.35 9.25333 1221.69 9.872C1222.03 10.4907 1222.2 11.2053 1222.2 12.016V12.112H1220.98V12.016C1220.98 11.3973 1220.86 10.8587 1220.62 10.4C1220.38 9.93067 1220.06 9.568 1219.64 9.312C1219.24 9.04533 1218.77 8.912 1218.25 8.912C1217.67 8.912 1217.17 9.04533 1216.73 9.312C1216.29 9.57867 1215.95 9.94667 1215.7 10.416C1215.46 10.8853 1215.34 11.4293 1215.34 12.048C1215.34 12.6667 1215.47 13.216 1215.74 13.696C1216 14.176 1216.37 14.5493 1216.82 14.816C1217.29 15.0827 1217.83 15.216 1218.44 15.216C1219.55 15.216 1220.44 14.7307 1221.11 13.76ZM1222.2 12.48H1215.08V11.504H1221.94L1222.2 12.016V12.48Z" fill="white" fill-opacity="0.8"/>
<path d="M41.8636 128.05C105.889 97.6046 254.982 37.9674 339.155 42.9819C444.37 49.2501 514.664 146.855 592.12 146.855C669.577 146.855 706.739 42.9819 767.182 42.9819C827.625 42.9819 915.827 146.855 978.061 146.855C1027.85 146.855 1123.87 77.6061 1165.66 42.9819" stroke="url(#paint0_radial_118_880)" stroke-width="2.68636"/>
<circle cx="51.7136" cy="119.991" r="7.16364" fill="white"/>
<circle cx="51.7136" cy="119.991" r="13.8795" stroke="white" stroke-width="0.895455" stroke-dasharray="8.95 8.95"/>
<circle cx="327.514" cy="42.9818" r="7.16364" fill="white"/>
<circle cx="327.514" cy="42.9818" r="13.8795" stroke="white" stroke-width="0.895455" stroke-dasharray="8.95 8.95"/>
<circle cx="595.255" cy="148.645" r="7.16364" fill="white"/>
<circle cx="595.255" cy="148.645" r="13.8795" stroke="white" stroke-width="0.895455" stroke-dasharray="8.95 8.95"/>
<circle cx="764.495" cy="42.9818" r="7.16364" fill="white"/>
<circle cx="764.495" cy="42.9818" r="13.8795" stroke="white" stroke-width="0.895455" stroke-dasharray="8.95 8.95"/>
<circle cx="1165.66" cy="42.9818" r="7.16364" fill="white"/>
<circle cx="1165.66" cy="42.9818" r="13.8795" stroke="white" stroke-width="0.895455" stroke-dasharray="8.95 8.95"/>
<defs>
<radialGradient id="paint0_radial_118_880" cx="0" cy="0" r="1" gradientUnits="userSpaceOnUse" gradientTransform="translate(667.339 119.991) rotate(-178.648) scale(569.22 6140.79)">
<stop stop-color="white"/>
<stop offset="1" stop-color="white" stop-opacity="0"/>
</radialGradient>
</defs>
</svg>
