<svg width="112" height="18" viewBox="0 0 112 18" fill="none" xmlns="http://www.w3.org/2000/svg">
<path d="M3.89792 12C3.97325 12.5923 4.21804 13.1077 4.63232 13.5462C5.05412 13.9769 5.61527 14.3115 6.31577 14.55C7.0238 14.7885 7.83728 14.9077 8.75621 14.9077C9.63748 14.9077 10.402 14.8192 11.0498 14.6423C11.7051 14.4654 12.206 14.2077 12.5524 13.8692C12.9065 13.5308 13.0835 13.1308 13.0835 12.6692C13.0835 12.2846 12.9855 11.9692 12.7897 11.7231C12.6014 11.4769 12.2775 11.2769 11.8181 11.1231C11.3661 10.9615 10.7409 10.8346 9.94253 10.7423L6.53044 10.35C5.06918 10.1885 3.87533 9.9 2.94886 9.48462C2.02993 9.06923 1.35203 8.52308 0.915165 7.84615C0.485828 7.16923 0.27116 6.34615 0.27116 5.37692C0.27116 4.26923 0.595046 3.31154 1.24282 2.50385C1.89812 1.69615 2.82458 1.07692 4.02221 0.646154C5.21983 0.215385 6.61706 0 8.21389 0C9.77306 0 11.1665 0.234615 12.3943 0.703846C13.6296 1.17308 14.605 1.83077 15.3205 2.67692C16.0361 3.52308 16.4278 4.5 16.4956 5.60769H12.6089C12.5411 5.1 12.3189 4.65769 11.9423 4.28077C11.5657 3.90385 11.0498 3.61154 10.3945 3.40385C9.74669 3.19615 8.99347 3.09231 8.1348 3.09231C7.32132 3.09231 6.61329 3.17692 6.01071 3.34615C5.40813 3.51538 4.9449 3.76154 4.62102 4.08462C4.29713 4.4 4.13519 4.78077 4.13519 5.22692C4.13519 5.58077 4.22558 5.87308 4.40635 6.10385C4.59466 6.33462 4.89971 6.52692 5.32151 6.68077C5.75085 6.83462 6.33083 6.95769 7.06146 7.05L10.5978 7.48846C12.1721 7.67308 13.4187 7.95385 14.3376 8.33077C15.2565 8.7 15.9193 9.19615 16.3261 9.81923C16.7328 10.4423 16.9362 11.2462 16.9362 12.2308C16.9362 13.3846 16.5935 14.3962 15.9081 15.2654C15.2226 16.1346 14.2547 16.8077 13.0044 17.2846C11.7616 17.7615 10.3229 18 8.68842 18C7.01626 18 5.53242 17.75 4.23687 17.25C2.94133 16.75 1.92072 16.0462 1.17503 15.1385C0.436869 14.2308 0.0451934 13.1846 0 12H3.89792Z" fill="white"/>
<path d="M38.999 14.0308L43.1003 0.346153H47.1338L41.688 17.6538H36.7732L32.2878 4.73077L27.8024 17.6538H22.8989L17.4418 0.346153H21.4979L25.5992 14.0654L30.2541 0.346153H34.3441L38.999 14.0308Z" fill="white"/>
<path d="M49.1424 17.6538V0.346153H52.9726V17.6538H49.1424Z" fill="white"/>
<path d="M55.1021 0.346153H72.4112V3.80769H65.6774V17.6538H61.8359V3.80769H55.1021V0.346153Z" fill="white"/>
<path d="M92.0957 10.6038C91.93 12.0654 91.4291 13.3577 90.593 14.4808C89.7569 15.5962 88.6535 16.4615 87.2826 17.0769C85.9117 17.6923 84.3601 18 82.6277 18C80.707 18 79.0122 17.6269 77.5434 16.8808C76.0822 16.1269 74.9486 15.0692 74.1426 13.7077C73.3367 12.3462 72.9337 10.7769 72.9337 9C72.9337 7.22308 73.3367 5.65385 74.1426 4.29231C74.9486 2.93077 76.0822 1.87692 77.5434 1.13077C79.0122 0.376923 80.707 0 82.6277 0C84.3601 0 85.9117 0.307692 87.2826 0.923077C88.6535 1.53846 89.7569 2.40769 90.593 3.53077C91.4291 4.64615 91.93 5.93462 92.0957 7.39615H88.243C88.0848 6.58077 87.7571 5.87692 87.26 5.28462C86.7704 4.68462 86.1302 4.22692 85.3393 3.91154C84.5484 3.58846 83.6408 3.42692 82.6164 3.42692C81.4338 3.42692 80.4057 3.65385 79.532 4.10769C78.6657 4.56154 77.9954 5.20769 77.5209 6.04615C77.0539 6.88462 76.8204 7.86923 76.8204 9C76.8204 10.1308 77.0539 11.1154 77.5209 11.9538C77.9954 12.7923 78.6657 13.4385 79.532 13.8923C80.4057 14.3462 81.4338 14.5731 82.6164 14.5731C84.168 14.5731 85.4334 14.2269 86.4126 13.5346C87.3994 12.8423 88.0095 11.8654 88.243 10.6038H92.0957Z" fill="white"/>
<path d="M108.159 7.16538V0.346153H112V17.6538H108.159V10.6269H98.4307V17.6538H94.6006V0.346153H98.4307V7.16538H108.159Z" fill="white"/>
</svg>
