<svg width="46" height="60" viewBox="0 0 46 60" fill="none" xmlns="http://www.w3.org/2000/svg">
<path d="M0.735963 3.23232C0.501451 3.37813 0.429549 3.68644 0.575356 3.92095L2.95144 7.74249C3.09725 7.977 3.40556 8.04891 3.64007 7.9031C3.87458 7.75729 3.94648 7.44898 3.80068 7.21447L1.6886 3.81754L5.08552 1.70546C5.32004 1.55966 5.39194 1.25135 5.24613 1.01684C5.10033 0.782334 4.79202 0.710426 4.55751 0.856236L0.735963 3.23232ZM43.3005 59.0141C46.5232 42.2836 46.093 30.6064 39.6924 21.9507C33.3087 13.3178 21.0802 7.82678 1.11354 3.17001L0.886407 4.14387C20.8441 8.79855 32.7391 14.2294 38.8884 22.5453C45.0208 30.8384 45.5332 42.1367 42.3186 58.825L43.3005 59.0141Z" fill="black"/>
</svg>
