<svg width="61" height="44" viewBox="0 0 61 44" fill="none" xmlns="http://www.w3.org/2000/svg">
<path d="M58.5694 43.3885C58.4346 43.6295 58.13 43.7155 57.889 43.5807L53.9618 41.3835C53.7209 41.2486 53.6348 40.944 53.7696 40.703C53.9045 40.462 54.2091 40.376 54.4501 40.5108L57.9409 42.4639L59.894 38.9731C60.0288 38.7321 60.3335 38.646 60.5744 38.7809C60.8154 38.9157 60.9015 39.2204 60.7667 39.4614L58.5694 43.3885ZM0.882871 3.44336C17.4468 -0.547949 29.1315 -0.657011 38.0733 5.3373C46.9916 11.3159 53.0411 23.2779 58.6143 43.0084L57.6519 43.2803C52.0812 23.5586 46.1072 11.9269 37.5165 6.16792C28.9492 0.4247 17.6393 0.434295 1.11713 4.41553L0.882871 3.44336Z" fill="black"/>
</svg>
