<svg width="1426" height="495" viewBox="0 0 1426 495" fill="none" xmlns="http://www.w3.org/2000/svg">
<path d="M5.728 392.807V404.135H4.576V394.231L2.528 395.975L1.824 395.175L4.704 392.807H5.728Z" fill="black"/>
<path d="M8.064 321.38V322.404H0.816V321.204L5.456 316.516C6.36267 315.588 6.816 314.724 6.816 313.924C6.816 313.284 6.59733 312.767 6.16 312.372C5.73333 311.967 5.20533 311.764 4.576 311.764C3.97867 311.764 3.472 311.951 3.056 312.324C2.64 312.697 2.368 313.183 2.24 313.78L1.104 313.556C1.264 312.745 1.664 312.084 2.304 311.572C2.944 311.049 3.70133 310.788 4.576 310.788C5.54667 310.788 6.35733 311.06 7.008 311.604C7.65867 312.148 7.984 312.916 7.984 313.908C7.984 314.569 7.82933 315.156 7.52 315.668C7.21067 316.169 6.752 316.724 6.144 317.332L2.064 321.38H8.064Z" fill="black"/>
<path d="M3.424 235.576V234.584H3.92C4.70933 234.584 5.344 234.418 5.824 234.088C6.31467 233.746 6.56 233.218 6.56 232.504C6.56 231.885 6.34133 231.378 5.904 230.984C5.46667 230.578 4.93867 230.376 4.32 230.376C3.33867 230.376 2.61867 230.818 2.16 231.704L1.184 231.192C1.87733 229.997 2.944 229.4 4.384 229.4C5.32267 229.4 6.10667 229.672 6.736 230.216C7.376 230.749 7.696 231.49 7.696 232.44C7.696 233.09 7.50933 233.645 7.136 234.104C6.77333 234.562 6.304 234.872 5.728 235.032V235.064C6.4 235.202 6.94933 235.522 7.376 236.024C7.80267 236.525 8.016 237.144 8.016 237.88C8.016 238.925 7.664 239.757 6.96 240.376C6.256 240.994 5.392 241.304 4.368 241.304C3.54667 241.304 2.82133 241.106 2.192 240.712C1.57333 240.306 1.104 239.73 0.784 238.984L1.872 238.584C2.064 239.117 2.384 239.538 2.832 239.848C3.28 240.157 3.792 240.312 4.368 240.312C5.05067 240.312 5.63733 240.093 6.128 239.656C6.61867 239.208 6.864 238.616 6.864 237.88C6.864 237.08 6.58133 236.498 6.016 236.136C5.45067 235.762 4.752 235.576 3.92 235.576H3.424Z" fill="black"/>
<path d="M6.976 147.444V155.028H8.64V156.036H6.976V158.772H5.856V156.036H0.672V154.916L5.472 147.444H6.976ZM5.856 155.028V148.74H5.824L1.872 155.028H5.856Z" fill="black"/>
<g opacity="0.2">
<line x1="0.5" y1="407.657" x2="1424.61" y2="407.657" stroke="#313131" stroke-linecap="round" stroke-dasharray="2 2"/>
<line x1="0.5" y1="326.123" x2="1424.61" y2="326.123" stroke="#313131" stroke-linecap="round" stroke-dasharray="2 2"/>
<line x1="0.5" y1="244.588" x2="1424.61" y2="244.588" stroke="#313131" stroke-linecap="round" stroke-dasharray="2 2"/>
<line x1="0.5" y1="162.571" x2="1424.61" y2="162.571" stroke="#313131" stroke-linecap="round" stroke-dasharray="2 2"/>
<line x1="0.5" y1="81.0354" x2="1424.61" y2="81.0354" stroke="#313131" stroke-linecap="round" stroke-dasharray="2 2"/>
<line x1="282.563" y1="1.67913e-08" x2="282.563" y2="495" stroke="#313131" stroke-dasharray="2 2"/>
<line x1="567.912" y1="1.67913e-08" x2="567.912" y2="495" stroke="#313131" stroke-dasharray="2 2"/>
<line x1="851.62" y1="1.68387e-08" x2="851.62" y2="495" stroke="#313131" stroke-dasharray="2 2"/>
<line x1="1138.62" y1="1.68387e-08" x2="1138.62" y2="495" stroke="#313131" stroke-dasharray="2 2"/>
</g>
</svg>
