<svg width="1491" height="848" viewBox="0 0 1491 848" fill="none" xmlns="http://www.w3.org/2000/svg">
<path d="M274.577 36.7146L280.018 38.1059L283.04 27.4486L272.531 31.6059L274.577 36.7146ZM225.032 211.465L219.59 210.074L215.618 224.085L228.086 216.056L225.032 211.465ZM302.176 161.789L307.778 162.398L309.313 150.635L299.121 157.198L302.176 161.789ZM277.542 350.655L271.94 350.047L270.42 361.698L280.562 355.269L277.542 350.655ZM411.738 265.588L417.371 265.9L418.189 254.971L408.718 260.974L411.738 265.588ZM395.572 481.579L389.939 481.266L389.215 490.938L398.091 486.475L395.572 481.579ZM481.988 438.134L487.633 437.881L487.373 429.264L479.469 433.238L481.988 438.134ZM485.994 570.535L480.348 570.788L480.672 581.472L489.402 574.878L485.994 570.535ZM561.89 513.216L567.364 511.772L565.27 503.746L558.481 508.873L561.89 513.216ZM590.613 623.274L585.139 624.719L586.962 631.702L593.403 628.026L590.613 623.274ZM663.345 581.762L668.993 581.672L668.993 572.194L660.555 577.01L663.345 581.762ZM663.345 751.259L695.953 695.577L630.736 696.619L663.345 751.259ZM189.731 76.1969L276.623 41.8232L272.531 31.6059L185.639 65.9796L189.731 76.1969ZM269.136 35.3233L219.59 210.074L230.473 212.856L280.018 38.1059L269.136 35.3233ZM228.086 216.056L305.231 166.38L299.121 157.198L221.977 206.874L228.086 216.056ZM296.574 161.18L271.94 350.047L283.145 351.264L307.778 162.398L296.574 161.18ZM280.562 355.269L414.758 270.201L408.718 260.974L274.522 346.042L280.562 355.269ZM406.105 265.275L389.939 481.266L401.205 481.891L417.371 265.9L406.105 265.275ZM398.091 486.475L484.507 443.031L479.469 433.238L393.052 476.682L398.091 486.475ZM476.342 438.388L480.348 570.788L491.639 570.282L487.633 437.881L476.342 438.388ZM489.402 574.878L565.299 517.56L558.481 508.873L482.585 566.191L489.402 574.878ZM556.416 514.661L585.139 624.719L596.088 621.829L567.364 511.772L556.416 514.661ZM593.403 628.026L666.134 586.514L660.555 577.01L587.824 618.522L593.403 628.026ZM657.697 581.852L657.697 701.704L668.993 701.524L668.993 581.672L657.697 581.852Z" fill="#F40000"/>
<path d="M75.8697 241.971L163 186.167L154.067 212.493L231.849 160.042L189.808 284.044L240.574 235.426L225.131 319.893L332.74 224.107L296.752 351.953L423.966 242.468L397.739 335.226L432.931 306.651L422.401 350.886L444.485 343.921L431.164 399.802L509.37 308.054L440.465 443.211L499.863 379.086L490.594 426.186L551.336 362.915L509.76 475.859L534.761 454.232L533.733 502.436L588.086 456.095L584.086 485.553L664.758 395.371L564.294 640.199" stroke="#F40000" stroke-width="7.63957"/>
<path d="M1031.88 107.076L1030.39 101.725L1028.59 102.241L1027.45 103.728L1031.88 107.076ZM1000.03 148.58L1000.42 154.131L1002.92 153.926L1004.46 151.928L1000.03 148.58ZM943.243 153.226L942.85 147.675L940.74 147.848L939.256 149.365L943.243 153.226ZM908.442 188.807L911.483 193.447L911.998 193.109L912.429 192.668L908.442 188.807ZM763.068 284.153L827.598 280.131L792.494 226.553L763.068 284.153ZM1117.94 76.6303L1030.39 101.725L1033.37 112.427L1120.92 87.3323L1117.94 76.6303ZM1027.45 103.728L995.594 145.232L1004.46 151.928L1036.31 110.424L1027.45 103.728ZM999.633 143.029L942.85 147.675L943.635 158.777L1000.42 154.131L999.633 143.029ZM939.256 149.365L904.456 184.946L912.429 192.668L947.23 157.087L939.256 149.365ZM905.402 184.167L802.308 251.783L808.388 261.063L911.483 193.447L905.402 184.167Z" fill="#F40000"/>
<path d="M833.814 779.767L791.947 687.25L817.255 700.293L777.193 617.248L896.407 678.656L855.588 621.97L939.071 651.249L859.963 532.347L984.142 588.661L894.447 448.744L984.524 489.713L961.458 451.303L1004.76 468.959L1001.47 446.75L1056.16 469.073L976.092 378.836L1102.04 467.724L1046.9 400.149L1093.34 417.101L1039.3 348.394L1147.31 407.45L1129.57 379.933L1178.56 389.237L1140.68 329.533L1170.04 338.426L1091.99 246.114L1324.35 383.963" stroke="#F40000" stroke-width="12.3408"/>
<path opacity="0.16" d="M700.463 95.195L738.772 189.139L713.979 175.203L750.845 259.618L634.055 194.01L672.684 252.11L590.374 219.88L664.892 341.516L542.946 280.822L627.241 423.835L538.788 379.689L560.373 418.893L517.778 399.708L520.217 422.019L466.412 397.765L542.984 490.79L420.511 397.481L473.039 466.972L427.279 448.379L478.661 518.962L372.974 456.103L389.651 484.232L341.052 473.191L376.624 534.203L347.63 524.272L422.101 619.298L195.161 473.274" stroke="#F40000" stroke-width="7.63957"/>
<path opacity="0.16" d="M1373.52 341.597L1308.98 421.028L1308.88 393.326L1252.12 466.735L1251.66 336.256L1219.3 397.823L1206.46 312.952L1135.49 436.554L1128.03 304.265L1042.91 446.826L1037.61 350.809L1013.51 388.62L1009.1 343.432L990.404 356.749L984.854 299.658L940.488 410.5L961.891 261.275L926.385 340.183L919.848 292.658L882.787 371.164L885.481 251.325L868.789 279.446L854.071 233.375L817.562 293.869L811.769 264.691L764.551 374.796L780.204 111.88" stroke="#F40000" stroke-width="7.63957"/>
<path opacity="0.16" d="M707.984 451.072L614.876 497L626.835 471.82L543.409 515.437L599.704 396.823L543.57 439.584L568.807 357.347L450.669 440.763L501.401 317.668L362.18 412.555L399.102 323.258L360.79 347.805L376.433 305.004L353.675 309.512L373.455 255.445L285.005 338.062L369.298 211.299L302.771 268.524L317.497 222.739L249.734 278.968L304.272 171.291L276.898 190.048L283.566 142.266L224.134 182.372L231.558 153.54L140.841 234.332L269.336 2.0491" stroke="#F40000" stroke-width="7.63957"/>
<path d="M1440.32 387.696L1436.42 383.653L1444.19 375.759L1445.77 386.95L1440.32 387.696ZM1312.89 517.141L1316.79 521.183L1306.58 531.562L1307.39 516.754L1312.89 517.141ZM1317.95 425.525L1314.65 420.955L1324.11 413.808L1323.45 425.911L1317.95 425.525ZM1165.94 540.291L1169.24 544.86L1159.86 551.94L1160.44 539.946L1165.94 540.291ZM1173.56 381.586L1170.5 376.844L1179.6 370.731L1179.06 381.931L1173.56 381.586ZM993.787 502.398L996.843 507.141L988.794 512.55L988.286 502.629L993.787 502.398ZM988.841 405.803L986.27 400.77L993.89 396.738L994.343 405.573L988.841 405.803ZM871.764 467.762L874.335 472.795L864.887 477.795L866.303 466.946L871.764 467.762ZM884.078 373.454L882.628 367.981L890.64 365.835L889.539 374.27L884.078 373.454ZM774.207 402.883L775.657 408.356L768.685 410.224L768.698 402.807L774.207 402.883ZM774.345 319.139L771.632 314.185L779.87 309.5L779.854 319.215L774.345 319.139ZM627 402.917L659.287 347.048L690.616 404.256L627 402.917ZM1447.93 480.968L1434.86 388.442L1445.77 386.95L1458.83 479.475L1447.93 480.968ZM1444.21 391.738L1316.79 521.183L1308.99 513.098L1436.42 383.653L1444.21 391.738ZM1307.39 516.754L1312.45 425.138L1323.45 425.911L1318.39 517.527L1307.39 516.754ZM1321.24 430.094L1169.24 544.86L1162.64 535.721L1314.65 420.955L1321.24 430.094ZM1160.44 539.946L1168.06 381.242L1179.06 381.931L1171.44 540.636L1160.44 539.946ZM1176.62 386.329L996.843 507.141L990.732 497.656L1170.5 376.844L1176.62 386.329ZM988.286 502.629L983.339 406.033L994.343 405.573L999.289 502.168L988.286 502.629ZM991.411 410.836L874.335 472.795L869.194 462.73L986.27 400.77L991.411 410.836ZM866.303 466.946L878.617 372.638L889.539 374.27L877.225 468.578L866.303 466.946ZM885.528 378.927L775.657 408.356L772.757 397.41L882.628 367.981L885.528 378.927ZM768.698 402.807L768.835 319.063L779.854 319.215L779.717 402.96L768.698 402.807ZM777.058 324.093L672.87 383.333L667.443 373.424L771.632 314.185L777.058 324.093Z" fill="#F40000"/>
<path d="M1248.81 230.331L1161.68 174.527L1170.61 200.852L1092.83 148.402L1134.87 272.404L1084.1 223.786L1099.55 308.252L991.939 212.467L1027.93 340.313L900.713 230.828L926.94 323.585L891.748 295.011L902.278 339.246L880.194 332.281L893.515 388.161L815.309 296.413L884.214 431.57L824.816 367.446L834.085 414.545L773.342 351.275L814.919 464.218L789.917 442.592L790.946 490.795L736.593 444.455L740.593 473.912L659.921 383.73L760.385 628.558" stroke="#F40000" stroke-width="7.63957"/>
<path d="M499.738 131.419L501.227 126.068L503.029 126.584L504.17 128.071L499.738 131.419ZM531.589 172.923L531.197 178.474L528.691 178.269L527.158 176.271L531.589 172.923ZM588.373 177.569L588.765 172.018L590.875 172.191L592.359 173.708L588.373 177.569ZM623.173 213.15L620.133 217.79L619.617 217.451L619.186 217.011L623.173 213.15ZM768.548 308.496L704.017 304.473L739.121 250.896L768.548 308.496ZM413.671 100.973L501.227 126.068L498.248 136.77L410.693 111.675L413.671 100.973ZM504.17 128.071L536.021 169.575L527.158 176.271L495.306 134.767L504.17 128.071ZM531.982 167.372L588.765 172.018L587.98 183.12L531.197 178.474L531.982 167.372ZM592.359 173.708L627.16 209.289L619.186 217.011L584.386 181.43L592.359 173.708ZM626.213 208.51L729.307 276.126L723.227 285.406L620.133 217.79L626.213 208.51Z" fill="#F40000"/>
<path d="M688.027 426.688L614.369 356.783L618.387 384.969L553.084 319.877L571.977 452.639L531.822 395.481L532.089 483.949L445.725 370.207L458.177 505.989L355.437 375.351L364.582 473.884L335.866 439.493L338.339 486.187L318.438 475.793L321.58 534.783L262.61 429.539L305.251 577.682L259.511 503.418L260.287 552.848L213.115 479.256L233.461 600.667L213.288 574.881L206.004 624.209L162.032 568.84L160.802 599.487L99.2078 495.473L153.187 760.196" stroke="#F40000" stroke-width="12.3408"/>
<path opacity="0.16" d="M831.152 119.539L792.844 213.483L817.636 199.547L780.771 283.962L897.56 218.353L858.932 276.453L941.241 244.224L866.723 365.86L988.67 305.165L904.374 448.178L992.827 404.033L971.243 443.237L1013.84 424.052L1011.4 446.363L1065.2 422.109L988.631 515.134L1111.1 421.825L1058.58 491.316L1104.34 472.723L1052.95 543.306L1158.64 480.447L1141.96 508.576L1190.56 497.535L1154.99 558.547L1183.99 548.615L1109.51 643.642L1336.45 497.618" stroke="#F40000" stroke-width="7.63957"/>
<path opacity="0.16" d="M158.098 365.941L222.64 445.372L222.731 417.669L279.49 491.078L279.956 360.599L312.317 422.166L325.159 337.295L396.123 460.898L403.587 328.608L488.7 471.169L494.005 375.152L518.108 412.963L522.516 367.775L541.212 381.092L546.761 324.001L591.127 434.843L569.724 285.618L605.23 364.527L611.767 317.001L648.828 395.507L646.134 275.668L662.826 303.789L677.545 257.718L714.053 318.213L719.847 289.034L767.064 399.139L751.411 136.223" stroke="#F40000" stroke-width="7.63957"/>
<path opacity="0.16" d="M765.883 243.005L721.958 337.074L746.877 324.579L705.056 408.92L822.437 350.097L780.888 407.135L862.567 380.142L781.699 500.039L903.679 446.684L811.795 587.904L900.281 549.078L876.561 587.908L919.016 571.352L914.997 594.201L968.628 573.267L887.924 663.466L1012.85 576.478L957.066 644.215L1002.52 628.512L947.759 697.464L1054.24 640.633L1036.08 668.402L1083.71 660.713L1044.88 720.99L1073.55 712.949L994.717 805.376L1224.2 671.937" stroke="#F40000" stroke-width="7.63957"/>
</svg>
