<svg width="351" height="351" viewBox="0 0 351 351" fill="none" xmlns="http://www.w3.org/2000/svg">
<path d="M351 175.5C351 141.353 341.038 107.948 322.336 79.3778C303.633 50.8079 277.002 28.3147 245.707 14.6545C214.411 0.99442 179.81 -3.23917 146.144 2.47259C112.478 8.18435 81.2098 23.5934 56.1708 46.8112C31.1319 70.0291 13.4101 100.047 5.1772 133.187C-3.05565 166.327 -1.4419 201.148 9.82069 233.385C21.0833 265.621 41.5054 293.871 68.5845 314.674C95.6635 335.476 128.223 347.927 162.273 350.501L175.5 175.5H351Z" fill="#4AC49E"/>
<path d="M157.871 350.112C185.781 352.93 213.96 349.017 240.046 338.7C266.131 328.383 289.364 311.963 307.796 290.817C326.229 269.67 339.323 244.414 345.983 217.164C352.642 189.913 352.673 161.464 346.071 134.2L175.5 175.5L157.871 350.112Z" fill="#0F61FF"/>
</svg>
