<svg width="351" height="351" viewBox="0 0 351 351" fill="none" xmlns="http://www.w3.org/2000/svg">
<path d="M336.924 244.367C352.856 207.021 355.347 165.305 343.971 126.329C332.595 87.352 308.056 53.5257 274.536 30.6133C241.015 7.70081 200.588 -2.88009 160.14 0.673413C119.693 4.22692 81.7298 21.695 52.7181 50.1012C23.7065 78.5074 5.44177 116.094 1.03617 156.457C-3.36944 196.821 6.35662 237.463 28.5571 271.459C50.7577 305.455 84.059 330.701 122.787 342.897C161.515 355.092 203.274 353.482 240.948 338.34L175.5 175.5L336.924 244.367Z" fill="#F40000"/>
<path d="M213.186 346.906C241.499 340.681 267.83 327.539 289.825 308.654C311.82 289.77 328.794 265.731 339.231 238.685L175.5 175.5L213.186 346.906Z" fill="#4AC49E"/>
</svg>
