<svg width="1438" height="307" viewBox="0 0 1438 307" fill="none" xmlns="http://www.w3.org/2000/svg">
<path opacity="0.41" d="M61.1816 147.836L5.27402 269.566C-2.33223 286.127 9.76797 305 27.9925 305H1410.36C1428.75 305 1440.84 285.821 1432.92 269.229L1397.18 194.36L1377.63 144.739C1369.5 124.124 1340.56 123.484 1331.54 143.72L1317.4 175.417C1308.65 195.018 1279.97 192.113 1275.33 171.157L1269.32 143.995C1266.03 129.107 1245.13 128.229 1240.6 142.789C1236.12 157.213 1215.47 156.533 1211.95 141.845L1195.32 72.6497C1188.88 45.828 1150.13 47.6729 1146.26 74.9853L1136.58 143.376C1135.15 153.504 1121.57 155.835 1116.84 146.765C1112.46 138.365 1100.08 139.579 1097.42 148.67L1079.56 209.617C1074.2 227.914 1049.96 231.696 1039.28 215.901L1025.39 195.357C1020.17 187.627 1008.29 189.525 1005.74 198.5C1002.68 209.241 987.403 209.09 984.559 198.29L959.912 104.698C953.977 82.1582 921.559 83.4435 917.427 106.382L913.17 130.01C910.664 143.921 891.685 146.23 885.917 133.325C880.091 120.291 860.88 122.815 858.617 136.911L857.428 144.322C854.399 163.195 827.122 162.845 824.578 143.9L821.053 117.639C818.011 94.9797 785.135 95.2816 782.509 117.993C780.193 138.027 752.655 141.694 745.178 122.964L740.124 110.306C736.315 100.765 723.738 98.674 717.047 106.47C710.357 114.264 697.783 112.176 693.971 102.638L684.767 79.6055C679.494 66.4091 660.594 67.0667 656.25 80.5978C651.807 94.44 632.315 94.6994 627.505 80.9804L605.773 19.0015C597.713 -3.98592 564.887 -3.04607 558.155 20.3649L512.147 180.367C505.42 203.763 472.621 204.722 464.539 181.758L430.744 85.7438C422.586 62.5645 389.385 63.8316 383.017 87.5654L349.913 210.941C343.859 233.507 312.912 236.174 303.086 214.977L285.313 176.636C277.314 159.382 251.997 162.062 247.788 180.609C243.237 200.664 214.982 201.529 209.214 181.788L178.419 76.3987C171.843 53.8938 140.694 52.0061 131.448 73.5522L98.499 150.338C94.8159 158.921 82.4067 158.168 79.7894 149.202C77.207 140.355 65.0278 139.462 61.1816 147.836Z" fill="url(#paint0_linear_287_572)" stroke="#0F61FF" stroke-width="4"/>
<defs>
<linearGradient id="paint0_linear_287_572" x1="719.5" y1="-55" x2="719.5" y2="305" gradientUnits="userSpaceOnUse">
<stop stop-color="#0F61FF"/>
<stop offset="1" stop-color="#0F61FF" stop-opacity="0"/>
</linearGradient>
</defs>
</svg>
