<svg width="1440" height="325" viewBox="0 0 1440 325" fill="none" xmlns="http://www.w3.org/2000/svg">
<path opacity="0.41" d="M62.1196 155.939L5.06986 288.091C-2.05486 304.595 10.0462 323 28.0224 323H1412.38C1430.51 323 1442.61 304.306 1435.19 287.765L1398.18 205.292L1378.8 152.964C1370.92 131.695 1341.07 131.064 1332.3 151.98L1318.57 184.712C1310.14 204.833 1280.78 202.005 1276.34 180.644L1270.29 151.564C1267.16 136.479 1245.93 135.635 1241.6 150.423C1237.32 165.082 1216.33 164.427 1212.97 149.529L1196.41 76.2027C1190.27 48.9924 1150.93 50.7602 1147.25 78.4118L1137.53 151.478C1136.17 161.69 1122.39 163.937 1117.85 154.686C1113.64 146.078 1101.01 147.261 1098.47 156.503L1080.38 222.199C1075.27 240.744 1050.59 244.44 1040.28 228.205L1026.56 206.61C1021.45 198.568 1009.21 200.445 1006.75 209.651C1003.83 220.576 988.272 220.43 985.554 209.452L960.977 110.164C955.31 87.2667 922.354 88.5015 918.416 111.758L914.106 137.209C911.724 151.277 892.441 153.504 886.914 140.351C881.335 127.073 861.83 129.505 859.682 143.745L858.44 151.979C855.565 171.031 827.987 170.697 825.575 151.581L822.072 123.823C819.189 100.972 785.985 101.259 783.497 124.156C781.288 144.492 753.195 148.033 746.008 128.882L740.98 115.485C737.343 105.793 724.547 103.729 718.047 111.786C711.548 119.841 698.754 117.78 695.115 108.09L685.807 83.3117C680.735 69.8075 661.418 70.4478 657.251 84.2583C652.993 98.3695 633.104 98.6212 628.49 84.6224L606.938 19.2286C599.172 -4.33317 565.533 -3.41796 559.06 20.5312L513.242 190.054C506.773 213.989 473.161 214.923 465.373 191.384L431.914 90.2471C424.057 66.4995 390.055 67.7318 383.938 91.9859L350.968 222.715C345.137 245.834 313.332 248.446 303.808 226.588L286.482 186.824C278.756 169.093 252.831 171.705 248.797 190.62C244.451 210.993 215.683 211.826 210.165 191.739L179.501 80.0907C173.164 57.0199 141.158 55.1722 132.208 77.3605L99.5499 158.331C95.9993 167.134 83.3003 166.399 80.7886 157.245C78.3088 148.208 65.834 147.335 62.1196 155.939Z" fill="url(#paint0_linear_384_580)" stroke="#6C0000" stroke-width="4"/>
<defs>
<linearGradient id="paint0_linear_384_580" x1="720.5" y1="-60" x2="720.5" y2="323" gradientUnits="userSpaceOnUse">
<stop stop-color="#F40000"/>
<stop offset="1" stop-color="#F40000" stop-opacity="0"/>
</linearGradient>
</defs>
</svg>
