<svg width="831" height="472" viewBox="0 0 831 472" fill="none" xmlns="http://www.w3.org/2000/svg">
<path d="M231.74 86.46V88H222.5C222.54 87.2133 222.66 86.5267 222.86 85.94C223.06 85.3533 223.367 84.8267 223.78 84.36C224.207 83.88 224.62 83.4867 225.02 83.18C225.42 82.8733 225.987 82.4933 226.72 82.04C227.867 81.32 228.62 80.78 228.98 80.42C229.727 79.6867 230.1 78.8733 230.1 77.98C230.1 77.1933 229.847 76.5533 229.34 76.06C228.833 75.5533 228.173 75.3 227.36 75.3C226.387 75.3 225.687 75.64 225.26 76.32C224.847 76.9867 224.627 77.8333 224.6 78.86H222.88V78.48C222.88 77.08 223.293 75.9533 224.12 75.1C224.96 74.2467 226.067 73.82 227.44 73.82C228.787 73.82 229.86 74.1933 230.66 74.94C231.46 75.6867 231.86 76.6867 231.86 77.94C231.86 78.4733 231.767 78.98 231.58 79.46C231.407 79.9267 231.207 80.32 230.98 80.64C230.767 80.96 230.433 81.3 229.98 81.66C229.54 82.02 229.173 82.3 228.88 82.5C228.587 82.6867 228.167 82.9467 227.62 83.28C226.527 83.9333 225.8 84.44 225.44 84.8C224.933 85.3067 224.607 85.86 224.46 86.46H231.74Z" fill="black"/>
<path d="M427.3 10.14V11.58H425.38V15H423.78V11.58H417.56V9.98L424 0.819999H425.38V10.14H427.3ZM423.78 10.14V3.32L419.06 10.14H423.78Z" fill="black"/>
<path d="M468.16 220.84V235H466.3V224.74H462.74V223.46C463.887 223.46 464.793 223.273 465.46 222.9C466.14 222.527 466.593 221.84 466.82 220.84H468.16ZM477.653 220.82C478.507 220.82 479.233 220.98 479.833 221.3C480.447 221.607 480.913 221.987 481.233 222.44C481.553 222.893 481.807 223.487 481.993 224.22C482.18 224.94 482.293 225.593 482.333 226.18C482.373 226.753 482.393 227.447 482.393 228.26C482.393 229.007 482.36 229.68 482.293 230.28C482.24 230.88 482.113 231.507 481.913 232.16C481.727 232.813 481.467 233.36 481.133 233.8C480.8 234.227 480.347 234.58 479.773 234.86C479.2 235.14 478.52 235.28 477.733 235.28C476.907 235.28 476.187 235.14 475.573 234.86C474.973 234.567 474.507 234.207 474.173 233.78C473.84 233.353 473.573 232.813 473.373 232.16C473.187 231.493 473.067 230.867 473.013 230.28C472.96 229.68 472.933 228.993 472.933 228.22C472.933 227.553 472.947 226.973 472.973 226.48C473.013 225.987 473.08 225.433 473.173 224.82C473.28 224.193 473.44 223.667 473.653 223.24C473.867 222.8 474.14 222.387 474.473 222C474.807 221.613 475.24 221.32 475.773 221.12C476.32 220.92 476.947 220.82 477.653 220.82ZM478.753 222.58C478.433 222.42 478.067 222.34 477.653 222.34C477.24 222.34 476.873 222.42 476.553 222.58C476.233 222.727 475.973 222.9 475.773 223.1C475.573 223.3 475.4 223.6 475.253 224C475.107 224.387 475 224.713 474.933 224.98C474.88 225.247 474.833 225.633 474.793 226.14C474.753 226.633 474.733 226.987 474.733 227.2C474.733 227.4 474.733 227.74 474.733 228.22C474.733 228.687 474.74 229.073 474.753 229.38C474.767 229.687 474.8 230.087 474.853 230.58C474.907 231.073 475 231.487 475.133 231.82C475.267 232.14 475.433 232.467 475.633 232.8C475.833 233.12 476.107 233.367 476.453 233.54C476.813 233.7 477.227 233.78 477.693 233.78C478.093 233.78 478.447 233.707 478.753 233.56C479.073 233.413 479.333 233.24 479.533 233.04C479.733 232.84 479.9 232.56 480.033 232.2C480.18 231.827 480.287 231.507 480.353 231.24C480.42 230.96 480.467 230.593 480.493 230.14C480.533 229.673 480.553 229.333 480.553 229.12C480.567 228.893 480.573 228.567 480.573 228.14C480.573 227.673 480.573 227.34 480.573 227.14C480.573 226.94 480.553 226.593 480.513 226.1C480.473 225.607 480.42 225.227 480.353 224.96C480.3 224.693 480.2 224.367 480.053 223.98C479.907 223.593 479.733 223.3 479.533 223.1C479.333 222.9 479.073 222.727 478.753 222.58ZM488.767 220.82C489.62 220.82 490.347 220.98 490.947 221.3C491.56 221.607 492.027 221.987 492.347 222.44C492.667 222.893 492.92 223.487 493.107 224.22C493.293 224.94 493.407 225.593 493.447 226.18C493.487 226.753 493.507 227.447 493.507 228.26C493.507 229.007 493.473 229.68 493.407 230.28C493.353 230.88 493.227 231.507 493.027 232.16C492.84 232.813 492.58 233.36 492.247 233.8C491.913 234.227 491.46 234.58 490.887 234.86C490.313 235.14 489.633 235.28 488.847 235.28C488.02 235.28 487.3 235.14 486.687 234.86C486.087 234.567 485.62 234.207 485.287 233.78C484.953 233.353 484.687 232.813 484.487 232.16C484.3 231.493 484.18 230.867 484.127 230.28C484.073 229.68 484.047 228.993 484.047 228.22C484.047 227.553 484.06 226.973 484.087 226.48C484.127 225.987 484.193 225.433 484.287 224.82C484.393 224.193 484.553 223.667 484.767 223.24C484.98 222.8 485.253 222.387 485.587 222C485.92 221.613 486.353 221.32 486.887 221.12C487.433 220.92 488.06 220.82 488.767 220.82ZM489.867 222.58C489.547 222.42 489.18 222.34 488.767 222.34C488.353 222.34 487.987 222.42 487.667 222.58C487.347 222.727 487.087 222.9 486.887 223.1C486.687 223.3 486.513 223.6 486.367 224C486.22 224.387 486.113 224.713 486.047 224.98C485.993 225.247 485.947 225.633 485.907 226.14C485.867 226.633 485.847 226.987 485.847 227.2C485.847 227.4 485.847 227.74 485.847 228.22C485.847 228.687 485.853 229.073 485.867 229.38C485.88 229.687 485.913 230.087 485.967 230.58C486.02 231.073 486.113 231.487 486.247 231.82C486.38 232.14 486.547 232.467 486.747 232.8C486.947 233.12 487.22 233.367 487.567 233.54C487.927 233.7 488.34 233.78 488.807 233.78C489.207 233.78 489.56 233.707 489.867 233.56C490.187 233.413 490.447 233.24 490.647 233.04C490.847 232.84 491.013 232.56 491.147 232.2C491.293 231.827 491.4 231.507 491.467 231.24C491.533 230.96 491.58 230.593 491.607 230.14C491.647 229.673 491.667 229.333 491.667 229.12C491.68 228.893 491.687 228.567 491.687 228.14C491.687 227.673 491.687 227.34 491.687 227.14C491.687 226.94 491.667 226.593 491.627 226.1C491.587 225.607 491.533 225.227 491.467 224.96C491.413 224.693 491.313 224.367 491.167 223.98C491.02 223.593 490.847 223.3 490.647 223.1C490.447 222.9 490.187 222.727 489.867 222.58Z" fill="black"/>
<path d="M100.16 351.84V366H98.3V355.74H94.74V354.46C95.8867 354.46 96.7933 354.273 97.46 353.9C98.14 353.527 98.5933 352.84 98.82 351.84H100.16ZM114.193 352.08V353.54C111.1 357.073 109.293 361.227 108.773 366H106.893C107.053 363.813 107.627 361.647 108.613 359.5C109.613 357.353 110.893 355.42 112.453 353.7H105.033V352.08H114.193Z" fill="black"/>
<path d="M9.74 261.46V263H0.5C0.54 262.213 0.66 261.527 0.86 260.94C1.06 260.353 1.36667 259.827 1.78 259.36C2.20667 258.88 2.62 258.487 3.02 258.18C3.42 257.873 3.98667 257.493 4.72 257.04C5.86667 256.32 6.62 255.78 6.98 255.42C7.72667 254.687 8.1 253.873 8.1 252.98C8.1 252.193 7.84667 251.553 7.34 251.06C6.83333 250.553 6.17333 250.3 5.36 250.3C4.38667 250.3 3.68667 250.64 3.26 251.32C2.84667 251.987 2.62667 252.833 2.6 253.86H0.88V253.48C0.88 252.08 1.29333 250.953 2.12 250.1C2.96 249.247 4.06667 248.82 5.44 248.82C6.78667 248.82 7.86 249.193 8.66 249.94C9.46 250.687 9.86 251.687 9.86 252.94C9.86 253.473 9.76667 253.98 9.58 254.46C9.40667 254.927 9.20667 255.32 8.98 255.64C8.76667 255.96 8.43333 256.3 7.98 256.66C7.54 257.02 7.17333 257.3 6.88 257.5C6.58667 257.687 6.16667 257.947 5.62 258.28C4.52667 258.933 3.8 259.44 3.44 259.8C2.93333 260.307 2.60667 260.86 2.46 261.46H9.74ZM18.2733 248.84V263H16.4133V252.74H12.8533V251.46C13.9999 251.46 14.9066 251.273 15.5733 250.9C16.2533 250.527 16.7066 249.84 16.9333 248.84H18.2733Z" fill="black"/>
<path d="M383.16 452.84V467H381.3V456.74H377.74V455.46C378.887 455.46 379.793 455.273 380.46 454.9C381.14 454.527 381.593 453.84 381.82 452.84H383.16ZM396.853 465.46V467H387.613C387.653 466.213 387.773 465.527 387.973 464.94C388.173 464.353 388.48 463.827 388.893 463.36C389.32 462.88 389.733 462.487 390.133 462.18C390.533 461.873 391.1 461.493 391.833 461.04C392.98 460.32 393.733 459.78 394.093 459.42C394.84 458.687 395.213 457.873 395.213 456.98C395.213 456.193 394.96 455.553 394.453 455.06C393.947 454.553 393.287 454.3 392.473 454.3C391.5 454.3 390.8 454.64 390.373 455.32C389.96 455.987 389.74 456.833 389.713 457.86H387.993V457.48C387.993 456.08 388.407 454.953 389.233 454.1C390.073 453.247 391.18 452.82 392.553 452.82C393.9 452.82 394.973 453.193 395.773 453.94C396.573 454.687 396.973 455.687 396.973 456.94C396.973 457.473 396.88 457.98 396.693 458.46C396.52 458.927 396.32 459.32 396.093 459.64C395.88 459.96 395.547 460.3 395.093 460.66C394.653 461.02 394.287 461.3 393.993 461.5C393.7 461.687 393.28 461.947 392.733 462.28C391.64 462.933 390.913 463.44 390.553 463.8C390.047 464.307 389.72 464.86 389.573 465.46H396.853Z" fill="black"/>
<path d="M477.54 106.82C478.393 106.82 479.12 106.98 479.72 107.3C480.333 107.607 480.8 107.987 481.12 108.44C481.44 108.893 481.693 109.487 481.88 110.22C482.067 110.94 482.18 111.593 482.22 112.18C482.26 112.753 482.28 113.447 482.28 114.26C482.28 115.007 482.247 115.68 482.18 116.28C482.127 116.88 482 117.507 481.8 118.16C481.613 118.813 481.353 119.36 481.02 119.8C480.687 120.227 480.233 120.58 479.66 120.86C479.087 121.14 478.407 121.28 477.62 121.28C476.793 121.28 476.073 121.14 475.46 120.86C474.86 120.567 474.393 120.207 474.06 119.78C473.727 119.353 473.46 118.813 473.26 118.16C473.073 117.493 472.953 116.867 472.9 116.28C472.847 115.68 472.82 114.993 472.82 114.22C472.82 113.553 472.833 112.973 472.86 112.48C472.9 111.987 472.967 111.433 473.06 110.82C473.167 110.193 473.327 109.667 473.54 109.24C473.753 108.8 474.027 108.387 474.36 108C474.693 107.613 475.127 107.32 475.66 107.12C476.207 106.92 476.833 106.82 477.54 106.82ZM478.64 108.58C478.32 108.42 477.953 108.34 477.54 108.34C477.127 108.34 476.76 108.42 476.44 108.58C476.12 108.727 475.86 108.9 475.66 109.1C475.46 109.3 475.287 109.6 475.14 110C474.993 110.387 474.887 110.713 474.82 110.98C474.767 111.247 474.72 111.633 474.68 112.14C474.64 112.633 474.62 112.987 474.62 113.2C474.62 113.4 474.62 113.74 474.62 114.22C474.62 114.687 474.627 115.073 474.64 115.38C474.653 115.687 474.687 116.087 474.74 116.58C474.793 117.073 474.887 117.487 475.02 117.82C475.153 118.14 475.32 118.467 475.52 118.8C475.72 119.12 475.993 119.367 476.34 119.54C476.7 119.7 477.113 119.78 477.58 119.78C477.98 119.78 478.333 119.707 478.64 119.56C478.96 119.413 479.22 119.24 479.42 119.04C479.62 118.84 479.787 118.56 479.92 118.2C480.067 117.827 480.173 117.507 480.24 117.24C480.307 116.96 480.353 116.593 480.38 116.14C480.42 115.673 480.44 115.333 480.44 115.12C480.453 114.893 480.46 114.567 480.46 114.14C480.46 113.673 480.46 113.34 480.46 113.14C480.46 112.94 480.44 112.593 480.4 112.1C480.36 111.607 480.307 111.227 480.24 110.96C480.187 110.693 480.087 110.367 479.94 109.98C479.793 109.593 479.62 109.3 479.42 109.1C479.22 108.9 478.96 108.727 478.64 108.58Z" fill="black"/>
<path d="M657.08 292.08V293.54C653.987 297.073 652.18 301.227 651.66 306H649.78C649.94 303.813 650.513 301.647 651.5 299.5C652.5 297.353 653.78 295.42 655.34 293.7H647.92V292.08H657.08Z" fill="black"/>
<path d="M808.92 63.42C808.96 61.9533 809.367 60.82 810.14 60.02C810.927 59.22 812.02 58.82 813.42 58.82C814.673 58.82 815.68 59.16 816.44 59.84C817.2 60.52 817.58 61.4133 817.58 62.52C817.58 63.1867 817.407 63.7867 817.06 64.32C816.727 64.84 816.253 65.2267 815.64 65.48C816.44 65.6667 817.073 66.0667 817.54 66.68C818.007 67.2933 818.24 68.0333 818.24 68.9C818.253 70.2067 817.8 71.2667 816.88 72.08C815.973 72.88 814.793 73.28 813.34 73.28C811.9 73.28 810.747 72.8867 809.88 72.1C809.027 71.3 808.6 70.2267 808.6 68.88V68.62H810.28C810.32 69.6333 810.607 70.4133 811.14 70.96C811.673 71.5067 812.413 71.78 813.36 71.78C814.267 71.78 815 71.5267 815.56 71.02C816.133 70.5 816.42 69.8333 816.42 69.02C816.42 68.1933 816.133 67.5333 815.56 67.04C815 66.5467 814.24 66.3 813.28 66.3C813.04 66.3 812.733 66.3267 812.36 66.38V64.94C812.547 64.9533 812.74 64.96 812.94 64.96C813.82 64.96 814.513 64.7533 815.02 64.34C815.54 63.9133 815.8 63.34 815.8 62.62C815.8 61.9267 815.573 61.3667 815.12 60.94C814.68 60.5133 814.087 60.3 813.34 60.3C812.487 60.3 811.82 60.5733 811.34 61.12C810.86 61.6533 810.607 62.42 810.58 63.42H808.92ZM829.413 68.14V69.58H827.493V73H825.893V69.58H819.673V67.98L826.113 58.82H827.493V68.14H829.413ZM825.893 68.14V61.32L821.173 68.14H825.893Z" fill="black"/>
<path d="M696.3 10.14V11.58H694.38V15H692.78V11.58H686.56V9.98L693 0.819999H694.38V10.14H696.3ZM692.78 10.14V3.32L688.06 10.14H692.78ZM706.533 1.08V2.58H700.793L699.953 6.8C700.647 6.05333 701.6 5.68 702.813 5.68C704.147 5.68 705.227 6.11333 706.053 6.98C706.88 7.83333 707.293 8.94667 707.293 10.32C707.293 11.76 706.84 12.9467 705.933 13.88C705.027 14.8133 703.847 15.28 702.393 15.28C701.047 15.28 699.953 14.9067 699.113 14.16C698.287 13.4133 697.853 12.42 697.813 11.18H699.533C699.6 11.9667 699.9 12.6067 700.433 13.1C700.967 13.5933 701.627 13.84 702.413 13.84C703.293 13.84 704.027 13.52 704.613 12.88C705.2 12.24 705.493 11.4467 705.493 10.5C705.493 9.51333 705.207 8.71333 704.633 8.1C704.06 7.47333 703.313 7.16 702.393 7.16C701.22 7.16 700.313 7.62 699.673 8.54L698.213 8.44L699.533 1.08H706.533ZM718.227 4.5H716.487C716.393 3.82 716.14 3.28667 715.727 2.9C715.327 2.5 714.78 2.3 714.087 2.3C713.607 2.3 713.173 2.38667 712.787 2.56C712.413 2.73333 712.107 2.98667 711.867 3.32C711.64 3.64 711.447 3.96667 711.287 4.3C711.127 4.63333 711.007 5.04 710.927 5.52C710.847 6 710.793 6.39333 710.767 6.7C710.74 6.99333 710.713 7.35333 710.687 7.78C711.46 6.54 712.633 5.92 714.207 5.92C715.527 5.92 716.587 6.34 717.387 7.18C718.2 8.00667 718.607 9.1 718.607 10.46C718.607 11.86 718.18 13.0133 717.327 13.92C716.487 14.8267 715.36 15.28 713.947 15.28C710.653 15.28 709.007 12.9333 709.007 8.24C709.007 7.50667 709.047 6.81333 709.127 6.16C709.22 5.50667 709.38 4.84667 709.607 4.18C709.847 3.5 710.153 2.92 710.527 2.44C710.9 1.96 711.393 1.57333 712.007 1.28C712.633 0.973332 713.347 0.819999 714.147 0.819999C715.333 0.819999 716.287 1.14667 717.007 1.8C717.727 2.44 718.133 3.34 718.227 4.5ZM713.907 7.4C713.04 7.4 712.34 7.69333 711.807 8.28C711.273 8.85333 711.007 9.60667 711.007 10.54C711.007 11.5133 711.273 12.2933 711.807 12.88C712.353 13.4667 713.067 13.76 713.947 13.76C714.8 13.76 715.487 13.48 716.007 12.92C716.54 12.3467 716.807 11.58 716.807 10.62C716.807 9.63333 716.547 8.85333 716.027 8.28C715.507 7.69333 714.8 7.4 713.907 7.4Z" fill="black"/>
<path d="M771.92 332.42C771.96 330.953 772.367 329.82 773.14 329.02C773.927 328.22 775.02 327.82 776.42 327.82C777.673 327.82 778.68 328.16 779.44 328.84C780.2 329.52 780.58 330.413 780.58 331.52C780.58 332.187 780.407 332.787 780.06 333.32C779.727 333.84 779.253 334.227 778.64 334.48C779.44 334.667 780.073 335.067 780.54 335.68C781.007 336.293 781.24 337.033 781.24 337.9C781.253 339.207 780.8 340.267 779.88 341.08C778.973 341.88 777.793 342.28 776.34 342.28C774.9 342.28 773.747 341.887 772.88 341.1C772.027 340.3 771.6 339.227 771.6 337.88V337.62H773.28C773.32 338.633 773.607 339.413 774.14 339.96C774.673 340.507 775.413 340.78 776.36 340.78C777.267 340.78 778 340.527 778.56 340.02C779.133 339.5 779.42 338.833 779.42 338.02C779.42 337.193 779.133 336.533 778.56 336.04C778 335.547 777.24 335.3 776.28 335.3C776.04 335.3 775.733 335.327 775.36 335.38V333.94C775.547 333.953 775.74 333.96 775.94 333.96C776.82 333.96 777.513 333.753 778.02 333.34C778.54 332.913 778.8 332.34 778.8 331.62C778.8 330.927 778.573 330.367 778.12 329.94C777.68 329.513 777.087 329.3 776.34 329.3C775.487 329.3 774.82 329.573 774.34 330.12C773.86 330.653 773.607 331.42 773.58 332.42H771.92Z" fill="black"/>
<path d="M227.08 328.08V329.54C223.987 333.073 222.18 337.227 221.66 342H219.78C219.94 339.813 220.513 337.647 221.5 335.5C222.5 333.353 223.78 331.42 225.34 329.7H217.92V328.08H227.08ZM231.413 334.42C230.787 334.153 230.3 333.767 229.953 333.26C229.62 332.74 229.453 332.133 229.453 331.44C229.453 330.373 229.847 329.507 230.633 328.84C231.42 328.16 232.433 327.82 233.673 327.82C234.9 327.82 235.9 328.153 236.673 328.82C237.46 329.473 237.853 330.32 237.853 331.36C237.853 332.8 237.207 333.82 235.913 334.42C237.58 335.007 238.413 336.16 238.413 337.88C238.413 339.227 237.98 340.3 237.113 341.1C236.247 341.887 235.08 342.28 233.613 342.28C232.2 342.28 231.06 341.893 230.193 341.12C229.34 340.333 228.913 339.293 228.913 338C228.913 337.147 229.127 336.413 229.553 335.8C229.993 335.173 230.613 334.713 231.413 334.42ZM235.453 329.94C235.013 329.54 234.42 329.34 233.673 329.34C232.927 329.34 232.327 329.547 231.873 329.96C231.42 330.36 231.193 330.893 231.193 331.56C231.193 332.227 231.42 332.767 231.873 333.18C232.327 333.58 232.927 333.78 233.673 333.78C234.407 333.78 234.993 333.58 235.433 333.18C235.887 332.767 236.113 332.227 236.113 331.56C236.113 330.88 235.893 330.34 235.453 329.94ZM233.613 335.16C232.76 335.16 232.06 335.427 231.513 335.96C230.967 336.48 230.693 337.147 230.693 337.96C230.693 338.8 230.967 339.493 231.513 340.04C232.073 340.573 232.787 340.84 233.653 340.84C234.533 340.84 235.247 340.573 235.793 340.04C236.353 339.507 236.633 338.82 236.633 337.98C236.633 337.14 236.353 336.46 235.793 335.94C235.233 335.42 234.507 335.16 233.613 335.16Z" fill="black"/>
<path d="M99.42 132.08V133.58H93.68L92.84 137.8C93.5333 137.053 94.4867 136.68 95.7 136.68C97.0333 136.68 98.1133 137.113 98.94 137.98C99.7667 138.833 100.18 139.947 100.18 141.32C100.18 142.76 99.7267 143.947 98.82 144.88C97.9133 145.813 96.7333 146.28 95.28 146.28C93.9333 146.28 92.84 145.907 92 145.16C91.1733 144.413 90.74 143.42 90.7 142.18H92.42C92.4867 142.967 92.7867 143.607 93.32 144.1C93.8533 144.593 94.5133 144.84 95.3 144.84C96.18 144.84 96.9133 144.52 97.5 143.88C98.0867 143.24 98.38 142.447 98.38 141.5C98.38 140.513 98.0933 139.713 97.52 139.1C96.9467 138.473 96.2 138.16 95.28 138.16C94.1067 138.16 93.2 138.62 92.56 139.54L91.1 139.44L92.42 132.08H99.42ZM111.413 141.14V142.58H109.493V146H107.893V142.58H101.673V140.98L108.113 131.82H109.493V141.14H111.413ZM107.893 141.14V134.32L103.173 141.14H107.893Z" fill="black"/>
</svg>
