<svg width="415" height="415" viewBox="0 0 415 415" fill="none" xmlns="http://www.w3.org/2000/svg">
<circle cx="207.522" cy="207.522" r="207" transform="rotate(-180 207.522 207.522)" fill="#0F61FF"/>
<line x1="352.34" y1="353.704" x2="63.3405" y2="64.7042" stroke="#0045CB" stroke-opacity="0.78" stroke-width="9"/>
<path d="M246.887 290.624L240.868 307.776L237.746 304.653L242.498 292.117L229.872 296.779L226.817 293.724L245.914 287.162C247.891 286.483 249.527 286.234 250.825 286.415C252.122 286.596 253.238 287.154 254.173 288.09C254.837 288.753 255.335 289.523 255.667 290.398L253.291 292.774C253.125 292.065 252.657 291.325 251.888 290.556C251.405 290.073 250.809 289.855 250.1 289.9C249.391 289.945 248.343 290.179 246.955 290.601L246.887 290.624ZM221.998 268.948C224.125 267.122 226.418 266.248 228.877 266.323C231.306 266.398 233.523 267.439 235.529 269.446C237.807 271.723 238.863 274.318 238.697 277.229C238.531 280.141 237.174 282.871 234.624 285.421C233.086 286.959 231.396 288.06 229.556 288.724C227.7 289.403 225.8 289.539 223.854 289.131C221.893 288.739 220.12 287.751 218.536 286.167C216.832 284.463 215.821 282.502 215.504 280.284C215.172 278.082 215.768 275.962 217.292 273.926L220.097 276.732C219.328 277.893 219.026 279.1 219.192 280.352C219.343 281.619 219.939 282.773 220.98 283.814C222.051 284.885 223.265 285.496 224.623 285.647C225.965 285.783 227.24 285.564 228.447 284.991C229.624 284.417 230.732 283.61 231.773 282.569C232.558 281.785 233.206 280.955 233.719 280.08C234.232 279.206 234.602 278.293 234.828 277.343C235.039 276.407 235.009 275.457 234.737 274.491C234.451 273.511 233.893 272.606 233.063 271.776C230.664 269.378 227.919 269.378 224.827 271.776L221.998 268.948ZM196.504 263.411L212.615 247.301L215.443 250.129L201.776 263.796L209.153 271.172L222.82 257.506L225.648 260.334L209.538 276.445L196.504 263.411ZM185.831 253.508C183.554 251.23 182.49 248.598 182.641 245.611C182.762 242.624 184.074 239.878 186.578 237.374C189.082 234.87 191.835 233.55 194.837 233.415C197.824 233.294 200.464 234.38 202.757 236.673C205.065 238.981 206.158 241.628 206.038 244.615C205.902 247.587 204.574 250.332 202.055 252.852C199.611 255.295 196.904 256.615 193.932 256.811C190.93 257.007 188.23 255.906 185.831 253.508ZM188.252 251.177C189.731 252.655 191.466 253.289 193.457 253.078C195.433 252.882 197.334 251.871 199.159 250.046C201.029 248.175 202.078 246.252 202.304 244.276C202.515 242.285 201.859 240.527 200.336 239.004C198.872 237.54 197.153 236.922 195.176 237.148C193.17 237.374 191.247 238.408 189.406 240.248C187.566 242.088 186.548 243.997 186.352 245.973C186.126 247.949 186.759 249.684 188.252 251.177ZM162.485 229.392L175.36 229.415L178.189 212.874L181.696 216.381L179.275 229.392L183.891 229.392L189.299 223.984L192.104 226.79L175.994 242.901L173.188 240.095L180.497 232.786L166.06 232.967L162.485 229.392ZM153.548 221.224C151.27 218.946 150.206 216.314 150.357 213.327C150.478 210.34 151.79 207.595 154.294 205.091C156.798 202.586 159.551 201.266 162.553 201.131C165.54 201.01 168.18 202.096 170.473 204.389C172.781 206.697 173.874 209.344 173.754 212.331C173.618 215.303 172.291 218.048 169.771 220.568C167.328 223.011 164.62 224.331 161.648 224.527C158.646 224.724 155.946 223.622 153.548 221.224ZM155.969 218.893C157.447 220.372 159.182 221.005 161.173 220.794C163.149 220.598 165.05 219.587 166.875 217.762C168.746 215.891 169.794 213.968 170.02 211.992C170.231 210.001 169.575 208.243 168.052 206.72C166.588 205.256 164.869 204.638 162.893 204.864C160.886 205.091 158.963 206.124 157.123 207.964C155.282 209.805 154.264 211.713 154.068 213.689C153.842 215.665 154.475 217.4 155.969 218.893ZM159.843 194.529L143.733 210.64L140.904 207.811L153.259 195.457L133.98 200.887L130.699 197.606L146.81 181.495L149.638 184.324L137.284 196.678L156.562 191.248L159.843 194.529ZM114.369 181.276L130.48 165.166L133.309 167.994L126.068 175.235L133.444 182.611L140.685 175.371L143.514 178.199L127.403 194.31L124.574 191.481L130.978 185.078L123.601 177.701L117.198 184.105L114.369 181.276Z" fill="#004BDC" fill-opacity="0.9"/>
<path d="M286.624 249.887L303.776 243.868L300.653 240.745L288.118 245.497L292.779 232.871L289.724 229.816L283.162 248.914C282.483 250.89 282.234 252.527 282.415 253.824C282.596 255.121 283.155 256.238 284.09 257.173C284.754 257.837 285.523 258.334 286.398 258.666L288.774 256.29C288.065 256.124 287.326 255.657 286.556 254.887C286.074 254.405 285.855 253.809 285.9 253.1C285.945 252.391 286.179 251.342 286.602 249.955L286.624 249.887ZM264.948 224.997C263.123 227.124 262.248 229.417 262.323 231.876C262.399 234.305 263.439 236.522 265.446 238.529C267.724 240.807 270.318 241.862 273.23 241.697C276.141 241.531 278.871 240.173 281.421 237.624C282.959 236.085 284.061 234.395 284.724 232.555C285.403 230.7 285.539 228.799 285.132 226.853C284.739 224.892 283.751 223.119 282.167 221.535C280.463 219.831 278.502 218.82 276.284 218.503C274.082 218.172 271.962 218.767 269.926 220.291L272.732 223.097C273.893 222.327 275.1 222.026 276.352 222.192C277.619 222.343 278.773 222.938 279.814 223.979C280.885 225.05 281.496 226.265 281.647 227.622C281.783 228.965 281.564 230.24 280.991 231.446C280.418 232.623 279.611 233.732 278.57 234.773C277.785 235.557 276.956 236.206 276.081 236.718C275.206 237.231 274.293 237.601 273.343 237.827C272.407 238.038 271.457 238.008 270.492 237.737C269.511 237.45 268.606 236.892 267.776 236.062C265.378 233.664 265.378 230.918 267.776 227.826L264.948 224.997ZM259.412 199.504L243.301 215.614L246.129 218.443L259.796 204.776L267.173 212.152L253.506 225.819L256.334 228.648L272.445 212.537L259.412 199.504ZM249.508 188.831C247.23 186.553 244.598 185.489 241.611 185.64C238.624 185.761 235.879 187.073 233.375 189.577C230.871 192.082 229.551 194.835 229.415 197.836C229.294 200.823 230.38 203.463 232.673 205.756C234.981 208.064 237.629 209.158 240.615 209.037C243.587 208.901 246.333 207.574 248.852 205.055C251.296 202.611 252.615 199.903 252.812 196.931C253.008 193.929 251.906 191.229 249.508 188.831ZM247.177 191.252C248.656 192.73 249.289 194.465 249.078 196.456C248.882 198.432 247.871 200.333 246.046 202.158C244.175 204.029 242.252 205.077 240.276 205.304C238.285 205.515 236.527 204.858 235.004 203.335C233.541 201.872 232.922 200.152 233.148 198.176C233.375 196.17 234.408 194.246 236.248 192.406C238.089 190.566 239.997 189.547 241.973 189.351C243.949 189.125 245.684 189.758 247.177 191.252ZM225.392 165.485L225.415 178.36L208.874 181.188L212.382 184.695L225.392 182.274L225.392 186.89L219.984 192.298L222.79 195.104L238.901 178.993L236.095 176.187L228.787 183.496L228.968 169.06L225.392 165.485ZM217.224 156.547C214.946 154.269 212.314 153.206 209.327 153.356C206.34 153.477 203.595 154.79 201.091 157.294C198.587 159.798 197.267 162.551 197.131 165.553C197.01 168.539 198.096 171.179 200.389 173.472C202.697 175.78 205.345 176.874 208.332 176.753C211.303 176.617 214.049 175.29 216.568 172.771C219.012 170.327 220.332 167.619 220.528 164.648C220.724 161.646 219.623 158.945 217.224 156.547ZM214.894 158.968C216.372 160.446 217.005 162.181 216.794 164.172C216.598 166.148 215.587 168.049 213.762 169.874C211.892 171.745 209.968 172.793 207.992 173.02C206.001 173.231 204.244 172.575 202.72 171.051C201.257 169.588 200.638 167.868 200.865 165.892C201.091 163.886 202.124 161.962 203.964 160.122C205.805 158.282 207.713 157.263 209.689 157.067C211.665 156.841 213.4 157.475 214.894 158.968ZM190.529 162.843L206.64 146.732L203.811 143.903L191.457 156.258L196.887 136.979L193.606 133.699L177.496 149.809L180.324 152.638L192.679 140.283L187.248 159.562L190.529 162.843ZM177.277 117.369L161.166 133.479L163.994 136.308L171.235 129.067L178.612 136.444L171.371 143.684L174.199 146.513L190.31 130.402L187.482 127.574L181.078 133.977L173.702 126.601L180.105 120.197L177.277 117.369Z" fill="#004BDC" fill-opacity="0.9"/>
</svg>
